<svg width="281" height="280" viewBox="0 0 281 280" fill="none" xmlns="http://www.w3.org/2000/svg">
<path d="M0.45697 140C0.45697 102.774 0.45697 84.1616 5.35132 69.0983C15.2431 38.6545 39.1115 14.7861 69.5553 4.89435C84.6185 0 103.231 0 140.457 0V0C177.683 0 196.295 0 211.359 4.89435C241.802 14.7861 265.671 38.6545 275.563 69.0983C280.457 84.1616 280.457 102.774 280.457 140V140C280.457 177.226 280.457 195.838 275.563 210.902C265.671 241.345 241.802 265.214 211.359 275.106C196.295 280 177.683 280 140.457 280V280C103.231 280 84.6185 280 69.5553 275.106C39.1115 265.214 15.2431 241.345 5.35132 210.902C0.45697 195.838 0.45697 177.226 0.45697 140V140Z" fill="black"/>
<path fill-rule="evenodd" clip-rule="evenodd" d="M140.457 215C195.685 215 240.457 140 240.457 140C240.457 140 195.685 65 140.457 65C85.2285 65 40.457 140 40.457 140C40.457 140 85.2285 215 140.457 215ZM184.457 135.828V140.753L179.652 139.165C179.097 138.951 177.467 138.319 176.544 137.893C174.706 137.046 172.234 135.747 169.739 133.943C164.835 130.399 159.242 124.44 159.242 115.698C159.242 110.576 155.802 107.231 151.395 104.963C149.239 103.853 147.047 103.118 145.371 102.66C143.323 102.1 140.584 102.1 140.584 102.1L143.268 94.9999C148.677 94.9999 154.033 96.0559 159.03 98.1077C164.027 100.159 168.568 103.167 172.393 106.958C176.218 110.749 179.252 115.25 181.322 120.204C183.392 125.157 184.457 130.466 184.457 135.828ZM136.281 95H141.207L139.619 99.8049C139.404 100.36 138.773 101.99 138.347 102.913C137.499 104.751 136.2 107.223 134.397 109.718C130.852 114.622 124.893 120.215 116.15 120.215C111.028 120.215 107.683 123.655 105.414 128.062C104.305 130.218 103.569 132.41 103.112 134.086C102.552 136.134 102.552 138.873 102.552 138.873L95.4536 136.189C95.4536 130.78 96.5072 125.424 98.5591 120.427C100.611 115.429 103.618 110.889 107.41 107.064C111.201 103.239 115.702 100.205 120.656 98.1353C125.61 96.0654 130.919 95 136.281 95ZM95.457 142.57V137.62L100.262 139.216C100.817 139.431 102.447 140.066 103.37 140.494C105.208 141.345 107.68 142.651 110.175 144.463C115.079 148.025 120.672 154.013 120.672 162.799C120.672 167.945 124.112 171.307 128.519 173.586C130.675 174.701 132.867 175.44 134.542 175.9C136.591 176.463 139.33 176.463 139.33 176.463L136.646 184C131.237 184 125.881 182.537 120.884 180.475C115.886 178.413 111.346 175.391 107.521 171.581C103.696 167.771 100.662 163.248 98.5923 158.271C96.5224 153.293 95.457 147.958 95.457 142.57ZM138.074 184H143C148.361 184 153.671 182.935 158.624 180.865C163.577 178.795 168.078 175.761 171.87 171.936C175.661 168.111 178.668 163.571 180.72 158.573C182.772 153.576 183.828 148.22 183.828 142.811L176.727 140.127C176.727 140.127 176.727 142.866 176.168 144.915C175.71 146.59 174.974 148.782 173.865 150.938C171.597 155.345 168.251 158.785 163.13 158.785C154.388 158.785 148.429 164.378 144.884 169.282C143.081 171.777 141.782 174.249 140.934 176.087C140.508 177.01 139.877 178.64 139.662 179.195L138.074 184Z" fill="#83EA00"/>
</svg>
