<svg width="726" height="595" viewBox="0 0 726 595" fill="none" xmlns="http://www.w3.org/2000/svg">
<path fill-rule="evenodd" clip-rule="evenodd" d="M717 4H585V8H584V329H460H455L443 350.714H439V354H412V351H408L396 329H391H270V9V8V5H145H5V9V468H8.99998H392V491V495H396H457H461V491V468H721V464V4H717ZM412 364H439V356H412V364ZM412 367.5V366H439V367H443L449 346.766L460 332.948V333H502L515 360V367H521.5V366H524H587V367V395V396H527V395H523V396H461V395H457V399V444V464H396V444V401V395H390H331H325H266H265V367H267V366H328H330.5V367H337V360L350 333H391L402 347L408 367.5H412ZM524 364H587V363V335V333H585H584H525V335H521V363H524V364ZM328 363V364H267V363H265V336H267V333H270H327V335H331V363H328ZM263 336V363V364H205V363H201V364H141V191H201V189H182V108H201V110H205V108H263V110H267V171H263V175H267V236H263V240H267V300H263V304H267V332H263V336ZM182 106H180H173V90V88V77H201V78H205V77H215V106H205H201H182ZM217 106H263H267V78H263V74H267V51H235H233H204V74H205V75H217V77V106ZM171 108V107V106V90H140V107H141V189H180V108H171ZM246 49H235V13H236V9H263V13H267V27H248H246V49ZM248 29H267V39H248V29ZM248 40V49H267V40H248ZM233 49V13H232V9H205V13H204V49H233ZM202 13H201V9H173V21H183V22H173V33H183V34H173V45H183H185V60V62H173V75H201V74H202V51V13ZM171 21V9H145H141V60H159V45H161H171V34H161V33H171V22H161V21H171ZM161 47V60H171V47H161ZM173 47H183V60H173V47ZM141 77V62H171V88H141V77ZM139 88V77H138V75H111V364H138V107V88H139ZM459 444V399H461V398H523V402H524V460H523V464H461V444H459ZM526 460H527V464H567V398H527V402H526V460ZM587 464H569V398H587V399V460V464ZM589 460H591V464H619V447H612H610V398H591V399H589V460ZM612 445H619H621V464H650V418H612V445ZM612 416H650V398H612V416ZM394 401H390V397H331V401H329V460H331V464H392V444H394V401ZM589 363V335H591V331H587V304H591V300H587V239H591V235H587V174H591V170H587V109H591V105H587V77H591V76H618V77H621V76H638V164V174V388V396H591V395H589V367H591V363H589ZM640 76V106H650V105H654V106H713V105H717V77H713V76H654V77H650V76H640ZM713 108H654V109H650V108H640V164H646V171H713V170H717V109H713V108ZM646 174V173H713V174H717V235H713V239H717V267H640V174H646ZM653 269H717V300H713V304H717V362H713V363V364H640V304H650H654V300H653V269ZM640 366V388H642V396H650V395H653V464H713V460H717V399H713V395H717V367H713V366H640ZM650 302H640V269H651V300H650V302ZM654 74V73H650V74H621V8H650V12H654V8H713V12H717V73H713V74H654ZM618 74V8H587V73H591V74H618ZM266 397H325V401H327V460V464H266V397ZM263 367V366H205V367H201V366H141H138H111H109H77V367H76V396H77V397H142V396H148V397H161V396H170V397H201V396H205V397H263V395V367ZM77 464V399H142V400H148V399H161V400H168V464H142V460H138V464H77ZM74 399V464H44V436H60H62V434V399H74ZM74 396V397H13V396H9V367H13V366H73V367H75V396H74ZM42 436H25H24H23V399H13V400H9V460H13V464H42V436ZM25 434V399H60V434H25ZM170 399V400V464H201V460H205V464H263V399H205V400H201V399H170ZM396 491H457V468H396V491ZM13 364H73V363H77V364H109V285H9V301H13V305H9V363H13V364ZM9 240V283H87V191H9V236H13V240H9ZM9 189V175H13V171H9V110H13V109H73V110H77V109H109V189H9ZM13 107H61V77H9V106H13V107ZM77 106V107H86V96H87V77H77V78H73V77H63V107H73V106H77ZM109 107H89V96V77H106H109V107ZM77 75H106V9H77V13H73V9H13V13H9V75H73V74H77V75ZM109 191H89V236H109V191ZM89 279V238H109V283H93V279H89ZM138 9V73H109V9H138ZM73 171H77V175H73V171ZM77 236H73V240H77V236ZM77 301H73V305H77V301ZM205 301H201V305H205V301ZM201 236H205V240H201V236ZM205 171H201V175H205V171ZM201 136H205V140H201V136ZM654 235H650V239H654V235ZM330 9H326V13H330V9ZM326 73H330V77H326V73ZM330 105H326V109H330V105ZM392 9H396V13H392V9ZM396 73H392V77H396V73ZM392 105H396V109H392V105ZM461 9H457V13H461V9ZM457 73H461V77H457V73ZM461 105H457V109H461V105ZM522 9H526V13H522V9ZM526 73H522V77H526V73ZM522 105H526V109H522V105Z" fill="url(#paint0_linear_17_1326)"/>
<path d="M386.487 203.23V207.297H376.139V203.23H386.487ZM368.991 209.137H374.042C374.127 210.512 374.557 211.547 375.331 212.242C376.104 212.937 377.249 213.285 378.764 213.285C379.999 213.285 380.979 212.996 381.706 212.418C382.432 211.84 382.956 211.008 383.276 209.922C383.596 208.828 383.756 207.52 383.756 205.996V204.051C383.756 202.48 383.573 201.156 383.206 200.078C382.846 198.992 382.295 198.172 381.553 197.617C380.819 197.062 379.877 196.785 378.729 196.785C377.596 196.785 376.698 196.957 376.034 197.301C375.37 197.645 374.885 198.137 374.581 198.777C374.276 199.41 374.088 200.176 374.018 201.074H368.967C369.124 199.496 369.577 198.074 370.327 196.809C371.084 195.535 372.159 194.527 373.549 193.785C374.948 193.043 376.674 192.672 378.729 192.672C380.768 192.672 382.538 193.137 384.038 194.066C385.538 194.996 386.698 196.312 387.518 198.016C388.338 199.719 388.749 201.734 388.749 204.062V206.008C388.749 208.336 388.346 210.348 387.542 212.043C386.745 213.73 385.6 215.035 384.108 215.957C382.616 216.871 380.834 217.328 378.764 217.328C376.788 217.328 375.092 216.984 373.678 216.297C372.264 215.602 371.159 214.641 370.362 213.414C369.565 212.18 369.108 210.754 368.991 209.137ZM390.486 197.184V193H410.197V197.184H402.849V217H397.833V197.184H390.486ZM414.647 217H409.209L417.495 193H424.034L432.307 217H426.87L420.858 198.484H420.67L414.647 217ZM414.307 207.566H427.151V211.527H414.307V207.566ZM453.477 193V217H448.555V193H453.477ZM434.059 217L441.583 204.344L434.375 193H440.622L446.012 202.879H456.149L461.399 193H467.622L460.59 204.309L467.973 217H461.915L456.84 207.566H445.274L440.071 217H434.059ZM488.938 193V217H483.864V197.816H483.723L478.227 201.262V196.762L484.168 193H488.938Z" fill="black"/>
<path d="M605.719 426.273V435H603.874V428.024H603.823L601.824 429.277V427.641L603.985 426.273H605.719ZM607.793 435V433.67L610.9 430.794C611.164 430.538 611.386 430.308 611.565 430.104C611.746 429.899 611.884 429.699 611.978 429.503C612.072 429.304 612.119 429.089 612.119 428.859C612.119 428.604 612.06 428.384 611.944 428.199C611.827 428.011 611.668 427.868 611.467 427.768C611.265 427.666 611.036 427.615 610.781 427.615C610.513 427.615 610.281 427.669 610.082 427.777C609.883 427.885 609.729 428.04 609.621 428.241C609.513 428.443 609.46 428.683 609.46 428.962H607.708C607.708 428.391 607.837 427.895 608.096 427.474C608.354 427.054 608.717 426.729 609.183 426.499C609.648 426.268 610.185 426.153 610.793 426.153C611.418 426.153 611.962 426.264 612.425 426.486C612.891 426.705 613.254 427.009 613.512 427.398C613.771 427.787 613.9 428.233 613.9 428.736C613.9 429.065 613.835 429.391 613.704 429.712C613.576 430.033 613.347 430.389 613.018 430.781C612.688 431.17 612.224 431.638 611.624 432.183L610.35 433.432V433.491H614.015V435H607.793ZM618.146 435V428.455H619.962V430.994H620.473L622.254 428.455H624.385L622.071 431.702L624.411 435H622.254L620.639 432.678H619.962V435H618.146ZM627.044 435.124C626.626 435.124 626.254 435.051 625.928 434.906C625.601 434.759 625.342 434.541 625.152 434.254C624.964 433.964 624.871 433.604 624.871 433.172C624.871 432.808 624.938 432.503 625.071 432.256C625.205 432.009 625.386 431.81 625.616 431.659C625.847 431.509 626.108 431.395 626.401 431.318C626.696 431.241 627.006 431.188 627.33 431.156C627.71 431.116 628.017 431.08 628.25 431.045C628.483 431.009 628.652 430.955 628.757 430.884C628.862 430.812 628.915 430.707 628.915 430.568V430.543C628.915 430.273 628.83 430.064 628.659 429.916C628.491 429.768 628.253 429.695 627.943 429.695C627.616 429.695 627.357 429.767 627.163 429.912C626.97 430.054 626.842 430.233 626.78 430.449L625.101 430.312C625.186 429.915 625.354 429.571 625.604 429.281C625.854 428.989 626.176 428.764 626.571 428.608C626.969 428.449 627.429 428.369 627.952 428.369C628.315 428.369 628.663 428.412 628.996 428.497C629.331 428.582 629.628 428.714 629.886 428.893C630.148 429.072 630.354 429.303 630.504 429.584C630.655 429.862 630.73 430.196 630.73 430.585V435H629.009V434.092H628.957C628.852 434.297 628.712 434.477 628.536 434.634C628.359 434.787 628.148 434.908 627.901 434.996C627.653 435.081 627.368 435.124 627.044 435.124ZM627.564 433.871C627.831 433.871 628.067 433.818 628.271 433.713C628.476 433.605 628.636 433.46 628.753 433.278C628.869 433.097 628.928 432.891 628.928 432.661V431.966C628.871 432.003 628.793 432.037 628.693 432.068C628.597 432.097 628.487 432.124 628.365 432.149C628.243 432.172 628.121 432.193 627.999 432.213C627.876 432.23 627.766 432.246 627.666 432.26C627.453 432.291 627.267 432.341 627.108 432.409C626.949 432.477 626.825 432.57 626.737 432.686C626.649 432.8 626.605 432.942 626.605 433.112C626.605 433.359 626.695 433.548 626.874 433.679C627.055 433.807 627.286 433.871 627.564 433.871ZM637.58 426.051L638.134 427.236C637.95 427.389 637.745 427.503 637.521 427.577C637.296 427.648 637.028 427.695 636.715 427.717C636.406 427.74 636.028 427.756 635.582 427.764C635.076 427.77 634.664 427.851 634.346 428.007C634.028 428.163 633.786 428.409 633.621 428.744C633.457 429.077 633.349 429.511 633.298 430.048H633.362C633.558 429.648 633.833 429.338 634.188 429.119C634.546 428.901 634.988 428.791 635.513 428.791C636.07 428.791 636.558 428.913 636.975 429.158C637.396 429.402 637.722 429.753 637.955 430.21C638.188 430.668 638.305 431.216 638.305 431.855C638.305 432.52 638.174 433.098 637.913 433.589C637.654 434.078 637.286 434.457 636.809 434.727C636.332 434.994 635.763 435.128 635.104 435.128C634.442 435.128 633.871 434.989 633.391 434.71C632.914 434.432 632.545 434.021 632.283 433.479C632.025 432.936 631.896 432.268 631.896 431.476V430.939C631.896 429.362 632.202 428.193 632.816 427.432C633.43 426.67 634.332 426.284 635.522 426.273C635.846 426.267 636.138 426.266 636.4 426.268C636.661 426.271 636.89 426.259 637.086 426.23C637.285 426.202 637.45 426.142 637.58 426.051ZM635.113 433.722C635.391 433.722 635.63 433.649 635.829 433.504C636.031 433.359 636.185 433.152 636.293 432.882C636.404 432.612 636.46 432.29 636.46 431.915C636.46 431.543 636.404 431.227 636.293 430.969C636.185 430.707 636.031 430.509 635.829 430.372C635.627 430.236 635.386 430.168 635.104 430.168C634.894 430.168 634.705 430.206 634.538 430.283C634.37 430.359 634.227 430.473 634.107 430.624C633.991 430.771 633.9 430.955 633.835 431.173C633.772 431.389 633.741 431.636 633.741 431.915C633.741 432.474 633.862 432.916 634.103 433.24C634.347 433.561 634.684 433.722 635.113 433.722Z" fill="#8D8D8D"/>
<path d="M202.868 426.273V435H201.022V428.024H200.971L198.973 429.277V427.641L201.133 426.273H202.868ZM208.364 435.192C207.631 435.189 207 435.009 206.472 434.651C205.946 434.293 205.541 433.774 205.257 433.095C204.976 432.416 204.837 431.599 204.839 430.645C204.839 429.693 204.98 428.882 205.261 428.212C205.545 427.541 205.95 427.031 206.476 426.682C207.004 426.33 207.634 426.153 208.364 426.153C209.094 426.153 209.722 426.33 210.247 426.682C210.776 427.034 211.182 427.545 211.466 428.216C211.75 428.884 211.891 429.693 211.888 430.645C211.888 431.602 211.746 432.42 211.462 433.099C211.18 433.778 210.777 434.297 210.251 434.655C209.726 435.013 209.097 435.192 208.364 435.192ZM208.364 433.662C208.864 433.662 209.263 433.411 209.561 432.908C209.859 432.405 210.007 431.651 210.004 430.645C210.004 429.983 209.936 429.432 209.8 428.991C209.666 428.551 209.476 428.22 209.229 427.999C208.984 427.777 208.696 427.666 208.364 427.666C207.866 427.666 207.469 427.915 207.17 428.412C206.872 428.909 206.722 429.653 206.719 430.645C206.719 431.315 206.786 431.875 206.919 432.324C207.055 432.77 207.247 433.105 207.494 433.33C207.741 433.551 208.031 433.662 208.364 433.662ZM215.998 435V428.455H217.813V430.994H218.325L220.106 428.455H222.237L219.923 431.702L222.262 435H220.106L218.491 432.678H217.813V435H215.998ZM224.896 435.124C224.478 435.124 224.106 435.051 223.779 434.906C223.452 434.759 223.194 434.541 223.004 434.254C222.816 433.964 222.722 433.604 222.722 433.172C222.722 432.808 222.789 432.503 222.923 432.256C223.056 432.009 223.238 431.81 223.468 431.659C223.698 431.509 223.96 431.395 224.252 431.318C224.548 431.241 224.857 431.188 225.181 431.156C225.562 431.116 225.869 431.08 226.102 431.045C226.335 431.009 226.504 430.955 226.609 430.884C226.714 430.812 226.766 430.707 226.766 430.568V430.543C226.766 430.273 226.681 430.064 226.511 429.916C226.343 429.768 226.104 429.695 225.795 429.695C225.468 429.695 225.208 429.767 225.015 429.912C224.822 430.054 224.694 430.233 224.631 430.449L222.952 430.312C223.038 429.915 223.205 429.571 223.455 429.281C223.705 428.989 224.028 428.764 224.423 428.608C224.82 428.449 225.281 428.369 225.803 428.369C226.167 428.369 226.515 428.412 226.847 428.497C227.183 428.582 227.479 428.714 227.738 428.893C227.999 429.072 228.205 429.303 228.356 429.584C228.506 429.862 228.582 430.196 228.582 430.585V435H226.86V434.092H226.809C226.704 434.297 226.563 434.477 226.387 434.634C226.211 434.787 225.999 434.908 225.752 434.996C225.505 435.081 225.219 435.124 224.896 435.124ZM225.415 433.871C225.683 433.871 225.918 433.818 226.123 433.713C226.327 433.605 226.488 433.46 226.604 433.278C226.721 433.097 226.779 432.891 226.779 432.661V431.966C226.722 432.003 226.644 432.037 226.545 432.068C226.448 432.097 226.339 432.124 226.217 432.149C226.094 432.172 225.972 432.193 225.85 432.213C225.728 432.23 225.617 432.246 225.518 432.26C225.305 432.291 225.119 432.341 224.96 432.409C224.8 432.477 224.677 432.57 224.589 432.686C224.501 432.8 224.457 432.942 224.457 433.112C224.457 433.359 224.546 433.548 224.725 433.679C224.907 433.807 225.137 433.871 225.415 433.871ZM235.432 426.051L235.986 427.236C235.801 427.389 235.597 427.503 235.372 427.577C235.148 427.648 234.879 427.695 234.567 427.717C234.257 427.74 233.879 427.756 233.433 427.764C232.928 427.77 232.516 427.851 232.197 428.007C231.879 428.163 231.638 428.409 231.473 428.744C231.308 429.077 231.2 429.511 231.149 430.048H231.213C231.409 429.648 231.685 429.338 232.04 429.119C232.398 428.901 232.839 428.791 233.365 428.791C233.922 428.791 234.409 428.913 234.827 429.158C235.247 429.402 235.574 429.753 235.807 430.21C236.04 430.668 236.156 431.216 236.156 431.855C236.156 432.52 236.026 433.098 235.764 433.589C235.506 434.078 235.138 434.457 234.661 434.727C234.183 434.994 233.615 435.128 232.956 435.128C232.294 435.128 231.723 434.989 231.243 434.71C230.766 434.432 230.396 434.021 230.135 433.479C229.876 432.936 229.747 432.268 229.747 431.476V430.939C229.747 429.362 230.054 428.193 230.668 427.432C231.281 426.67 232.183 426.284 233.374 426.273C233.697 426.267 233.99 426.266 234.251 426.268C234.513 426.271 234.741 426.259 234.938 426.23C235.136 426.202 235.301 426.142 235.432 426.051ZM232.964 433.722C233.243 433.722 233.482 433.649 233.68 433.504C233.882 433.359 234.037 433.152 234.145 432.882C234.256 432.612 234.311 432.29 234.311 431.915C234.311 431.543 234.256 431.227 234.145 430.969C234.037 430.707 233.882 430.509 233.68 430.372C233.479 430.236 233.237 430.168 232.956 430.168C232.746 430.168 232.557 430.206 232.389 430.283C232.222 430.359 232.078 430.473 231.959 430.624C231.842 430.771 231.751 430.955 231.686 431.173C231.624 431.389 231.592 431.636 231.592 431.915C231.592 432.474 231.713 432.916 231.955 433.24C232.199 433.561 232.536 433.722 232.964 433.722Z" fill="#8D8D8D"/>
<path d="M109.334 426.153C109.783 426.153 110.214 426.229 110.629 426.379C111.047 426.53 111.419 426.77 111.746 427.099C112.075 427.429 112.335 427.866 112.526 428.412C112.719 428.955 112.817 429.621 112.82 430.411C112.82 431.152 112.736 431.814 112.568 432.396C112.403 432.976 112.166 433.469 111.857 433.875C111.547 434.281 111.173 434.591 110.736 434.804C110.298 435.014 109.81 435.119 109.27 435.119C108.688 435.119 108.173 435.007 107.727 434.783C107.281 434.555 106.922 434.247 106.649 433.858C106.379 433.466 106.216 433.026 106.159 432.537H107.979C108.05 432.855 108.199 433.102 108.426 433.278C108.653 433.452 108.935 433.538 109.27 433.538C109.838 433.538 110.27 433.291 110.565 432.797C110.861 432.3 111.01 431.619 111.013 430.756H110.953C110.822 431.011 110.646 431.232 110.425 431.416C110.203 431.598 109.949 431.739 109.662 431.838C109.378 431.938 109.075 431.987 108.754 431.987C108.24 431.987 107.781 431.866 107.378 431.625C106.974 431.384 106.656 431.051 106.423 430.628C106.19 430.205 106.074 429.722 106.074 429.179C106.071 428.594 106.206 428.072 106.479 427.615C106.751 427.158 107.132 426.8 107.621 426.541C108.112 426.28 108.683 426.151 109.334 426.153ZM109.347 427.602C109.06 427.602 108.804 427.67 108.58 427.807C108.358 427.943 108.182 428.126 108.051 428.357C107.923 428.587 107.861 428.844 107.864 429.128C107.864 429.415 107.926 429.673 108.051 429.903C108.179 430.131 108.352 430.312 108.571 430.449C108.793 430.582 109.045 430.649 109.33 430.649C109.543 430.649 109.74 430.609 109.922 430.53C110.104 430.45 110.261 430.341 110.395 430.202C110.531 430.06 110.638 429.896 110.714 429.712C110.791 429.527 110.83 429.331 110.83 429.124C110.827 428.848 110.761 428.595 110.634 428.365C110.506 428.135 110.33 427.95 110.105 427.811C109.881 427.672 109.628 427.602 109.347 427.602ZM116.892 435V428.455H118.708V430.994H119.219L121 428.455H123.131L120.817 431.702L123.157 435H121L119.385 432.678H118.708V435H116.892ZM125.79 435.124C125.373 435.124 125 435.051 124.674 434.906C124.347 434.759 124.088 434.541 123.898 434.254C123.711 433.964 123.617 433.604 123.617 433.172C123.617 432.808 123.684 432.503 123.817 432.256C123.951 432.009 124.132 431.81 124.363 431.659C124.593 431.509 124.854 431.395 125.147 431.318C125.442 431.241 125.752 431.188 126.076 431.156C126.456 431.116 126.763 431.08 126.996 431.045C127.229 431.009 127.398 430.955 127.503 430.884C127.608 430.812 127.661 430.707 127.661 430.568V430.543C127.661 430.273 127.576 430.064 127.405 429.916C127.238 429.768 126.999 429.695 126.689 429.695C126.363 429.695 126.103 429.767 125.909 429.912C125.716 430.054 125.588 430.233 125.526 430.449L123.847 430.312C123.932 429.915 124.1 429.571 124.35 429.281C124.6 428.989 124.922 428.764 125.317 428.608C125.715 428.449 126.175 428.369 126.698 428.369C127.061 428.369 127.409 428.412 127.742 428.497C128.077 428.582 128.374 428.714 128.632 428.893C128.894 429.072 129.1 429.303 129.25 429.584C129.401 429.862 129.476 430.196 129.476 430.585V435H127.755V434.092H127.703C127.598 434.297 127.458 434.477 127.282 434.634C127.105 434.787 126.894 434.908 126.647 434.996C126.4 435.081 126.114 435.124 125.79 435.124ZM126.31 433.871C126.577 433.871 126.813 433.818 127.017 433.713C127.222 433.605 127.382 433.46 127.499 433.278C127.615 433.097 127.674 432.891 127.674 432.661V431.966C127.617 432.003 127.539 432.037 127.439 432.068C127.343 432.097 127.233 432.124 127.111 432.149C126.989 432.172 126.867 432.193 126.745 432.213C126.623 432.23 126.512 432.246 126.412 432.26C126.199 432.291 126.013 432.341 125.854 432.409C125.695 432.477 125.571 432.57 125.483 432.686C125.395 432.8 125.351 432.942 125.351 433.112C125.351 433.359 125.441 433.548 125.62 433.679C125.801 433.807 126.032 433.871 126.31 433.871ZM136.326 426.051L136.88 427.236C136.696 427.389 136.491 427.503 136.267 427.577C136.042 427.648 135.774 427.695 135.461 427.717C135.152 427.74 134.774 427.756 134.328 427.764C133.822 427.77 133.41 427.851 133.092 428.007C132.774 428.163 132.532 428.409 132.368 428.744C132.203 429.077 132.095 429.511 132.044 430.048H132.108C132.304 429.648 132.579 429.338 132.934 429.119C133.292 428.901 133.734 428.791 134.26 428.791C134.816 428.791 135.304 428.913 135.721 429.158C136.142 429.402 136.468 429.753 136.701 430.21C136.934 430.668 137.051 431.216 137.051 431.855C137.051 432.52 136.92 433.098 136.659 433.589C136.4 434.078 136.032 434.457 135.555 434.727C135.078 434.994 134.51 435.128 133.85 435.128C133.189 435.128 132.618 434.989 132.137 434.71C131.66 434.432 131.291 434.021 131.029 433.479C130.771 432.936 130.642 432.268 130.642 431.476V430.939C130.642 429.362 130.949 428.193 131.562 427.432C132.176 426.67 133.078 426.284 134.268 426.273C134.592 426.267 134.885 426.266 135.146 426.268C135.407 426.271 135.636 426.259 135.832 426.23C136.031 426.202 136.196 426.142 136.326 426.051ZM133.859 433.722C134.137 433.722 134.376 433.649 134.575 433.504C134.777 433.359 134.931 433.152 135.039 432.882C135.15 432.612 135.206 432.29 135.206 431.915C135.206 431.543 135.15 431.227 135.039 430.969C134.931 430.707 134.777 430.509 134.575 430.372C134.373 430.236 134.132 430.168 133.85 430.168C133.64 430.168 133.451 430.206 133.284 430.283C133.116 430.359 132.973 430.473 132.853 430.624C132.737 430.771 132.646 430.955 132.581 431.173C132.518 431.389 132.487 431.636 132.487 431.915C132.487 432.474 132.608 432.916 132.849 433.24C133.093 433.561 133.43 433.722 133.859 433.722Z" fill="#8D8D8D"/>
<path d="M45.4078 151.119C44.7715 151.119 44.2047 151.01 43.7076 150.791C43.2132 150.57 42.8226 150.266 42.5357 149.879C42.2516 149.49 42.1053 149.041 42.0968 148.533H43.9547C43.9661 148.746 44.0357 148.933 44.1635 149.095C44.2942 149.254 44.4675 149.378 44.6834 149.466C44.8993 149.554 45.1422 149.598 45.4121 149.598C45.6934 149.598 45.9419 149.548 46.1578 149.449C46.3738 149.349 46.5428 149.212 46.665 149.036C46.7871 148.859 46.8482 148.656 46.8482 148.426C46.8482 148.193 46.7828 147.987 46.6522 147.808C46.5243 147.626 46.3397 147.484 46.0982 147.382C45.8596 147.28 45.5755 147.229 45.2459 147.229H44.432V145.874H45.2459C45.5243 145.874 45.7701 145.825 45.9831 145.729C46.199 145.632 46.3667 145.499 46.486 145.328C46.6053 145.155 46.665 144.953 46.665 144.723C46.665 144.504 46.6124 144.312 46.5073 144.148C46.405 143.98 46.2601 143.849 46.0726 143.756C45.888 143.662 45.6721 143.615 45.4249 143.615C45.1749 143.615 44.9462 143.661 44.7388 143.751C44.5314 143.839 44.3652 143.966 44.2402 144.131C44.1152 144.295 44.0485 144.489 44.04 144.71H42.2715C42.28 144.207 42.4235 143.764 42.7019 143.381C42.9803 142.997 43.3553 142.697 43.8269 142.482C44.3013 142.263 44.8368 142.153 45.4334 142.153C46.0357 142.153 46.5627 142.263 47.0144 142.482C47.4661 142.7 47.8169 142.996 48.0669 143.368C48.3198 143.737 48.4448 144.152 48.4419 144.612C48.4448 145.101 48.2928 145.509 47.986 145.835C47.682 146.162 47.2857 146.369 46.7971 146.457V146.526C47.4391 146.608 47.9277 146.831 48.263 147.195C48.601 147.555 48.7686 148.007 48.7658 148.55C48.7686 149.047 48.6252 149.489 48.3354 149.875C48.0485 150.261 47.6522 150.565 47.1465 150.787C46.6408 151.009 46.0613 151.119 45.4078 151.119ZM52.8865 151V144.455H54.7019V146.994H55.2132L56.9945 144.455H59.1252L56.8113 147.702L59.1507 151H56.9945L55.3794 148.678H54.7019V151H52.8865ZM61.7843 151.124C61.3667 151.124 60.9945 151.051 60.6678 150.906C60.3411 150.759 60.0826 150.541 59.8922 150.254C59.7047 149.964 59.611 149.604 59.611 149.172C59.611 148.808 59.6777 148.503 59.8113 148.256C59.9448 148.009 60.1266 147.81 60.3567 147.659C60.5868 147.509 60.8482 147.395 61.1408 147.318C61.4363 147.241 61.7459 147.188 62.0698 147.156C62.4505 147.116 62.7573 147.08 62.9902 147.045C63.2232 147.009 63.3922 146.955 63.4973 146.884C63.6025 146.812 63.655 146.707 63.655 146.568V146.543C63.655 146.273 63.5698 146.064 63.3993 145.916C63.2317 145.768 62.9931 145.695 62.6834 145.695C62.3567 145.695 62.0968 145.767 61.9036 145.912C61.7104 146.054 61.5826 146.233 61.5201 146.449L59.8411 146.312C59.9263 145.915 60.0939 145.571 60.3439 145.281C60.5939 144.989 60.9164 144.764 61.3113 144.608C61.709 144.449 62.1692 144.369 62.6919 144.369C63.0556 144.369 63.4036 144.412 63.736 144.497C64.0712 144.582 64.3681 144.714 64.6266 144.893C64.888 145.072 65.0939 145.303 65.2445 145.584C65.3951 145.862 65.4703 146.196 65.4703 146.585V151H63.7488V150.092H63.6976C63.5925 150.297 63.4519 150.477 63.2757 150.634C63.0996 150.787 62.888 150.908 62.6408 150.996C62.3936 151.081 62.1081 151.124 61.7843 151.124ZM62.3042 149.871C62.5712 149.871 62.807 149.818 63.0115 149.713C63.2161 149.605 63.3766 149.46 63.4931 149.278C63.6096 149.097 63.6678 148.891 63.6678 148.661V147.966C63.611 148.003 63.5328 148.037 63.4334 148.068C63.3368 148.097 63.2275 148.124 63.1053 148.149C62.9831 148.172 62.861 148.193 62.7388 148.213C62.6167 148.23 62.5059 148.246 62.4064 148.26C62.1934 148.291 62.0073 148.341 61.8482 148.409C61.6891 148.477 61.5655 148.57 61.4775 148.686C61.3894 148.8 61.3453 148.942 61.3453 149.112C61.3453 149.359 61.4348 149.548 61.6138 149.679C61.7956 149.807 62.0257 149.871 62.3042 149.871ZM72.3205 142.051L72.8745 143.236C72.6898 143.389 72.4853 143.503 72.2608 143.577C72.0364 143.648 71.7679 143.695 71.4554 143.717C71.1458 143.74 70.7679 143.756 70.3219 143.764C69.8162 143.77 69.4043 143.851 69.0861 144.007C68.7679 144.163 68.5265 144.409 68.3617 144.744C68.1969 145.077 68.089 145.511 68.0378 146.048H68.1017C68.2978 145.648 68.5733 145.338 68.9284 145.119C69.2864 144.901 69.7282 144.791 70.2537 144.791C70.8105 144.791 71.2978 144.913 71.7154 145.158C72.1358 145.402 72.4625 145.753 72.6955 146.21C72.9284 146.668 73.0449 147.216 73.0449 147.855C73.0449 148.52 72.9142 149.098 72.6529 149.589C72.3944 150.078 72.0265 150.457 71.5492 150.727C71.0719 150.994 70.5037 151.128 69.8446 151.128C69.1827 151.128 68.6117 150.989 68.1316 150.71C67.6543 150.432 67.285 150.021 67.0236 149.479C66.7651 148.936 66.6358 148.268 66.6358 147.476V146.939C66.6358 145.362 66.9426 144.193 67.5563 143.432C68.1699 142.67 69.0719 142.284 70.2623 142.273C70.5861 142.267 70.8787 142.266 71.1401 142.268C71.4015 142.271 71.6301 142.259 71.8262 142.23C72.025 142.202 72.1898 142.142 72.3205 142.051ZM69.8532 149.722C70.1316 149.722 70.3702 149.649 70.5691 149.504C70.7708 149.359 70.9256 149.152 71.0336 148.882C71.1444 148.612 71.1998 148.29 71.1998 147.915C71.1998 147.543 71.1444 147.227 71.0336 146.969C70.9256 146.707 70.7708 146.509 70.5691 146.372C70.3674 146.236 70.1259 146.168 69.8446 146.168C69.6344 146.168 69.4455 146.206 69.2779 146.283C69.1103 146.359 68.9668 146.473 68.8475 146.624C68.731 146.771 68.6401 146.955 68.5748 147.173C68.5123 147.389 68.481 147.636 68.481 147.915C68.481 148.474 68.6017 148.916 68.8432 149.24C69.0875 149.561 69.4242 149.722 69.8532 149.722Z" fill="#8D8D8D"/>
<path d="M41.8578 47V45.6705L44.9643 42.794C45.2285 42.5384 45.4501 42.3082 45.6291 42.1037C45.8109 41.8991 45.9487 41.6989 46.0424 41.5028C46.1362 41.304 46.1831 41.0895 46.1831 40.8594C46.1831 40.6037 46.1248 40.3835 46.0083 40.1989C45.8919 40.0114 45.7328 39.8679 45.5311 39.7685C45.3294 39.6662 45.1007 39.6151 44.845 39.6151C44.5779 39.6151 44.345 39.669 44.1461 39.777C43.9473 39.8849 43.7939 40.0398 43.6859 40.2415C43.5779 40.4432 43.524 40.6832 43.524 40.9616H41.7725C41.7725 40.3906 41.9018 39.8949 42.1603 39.4744C42.4189 39.054 42.7811 38.7287 43.247 38.4986C43.7129 38.2685 44.2498 38.1534 44.8578 38.1534C45.4828 38.1534 46.0268 38.2642 46.4899 38.4858C46.9558 38.7045 47.318 39.0085 47.5765 39.3977C47.8351 39.7869 47.9643 40.233 47.9643 40.7358C47.9643 41.0653 47.899 41.3906 47.7683 41.7116C47.6404 42.0327 47.4118 42.3892 47.0822 42.7812C46.7527 43.1705 46.2882 43.6378 45.6887 44.1832L44.4146 45.4318V45.4915H48.0794V47H41.8578ZM52.2108 47V40.4545H54.0261V42.9943H54.5375L56.3187 40.4545H58.4494L56.1355 43.7017L58.475 47H56.3187L54.7037 44.6776H54.0261V47H52.2108ZM61.1085 47.1236C60.6909 47.1236 60.3187 47.0511 59.992 46.9062C59.6653 46.7585 59.4068 46.5412 59.2164 46.2543C59.0289 45.9645 58.9352 45.6037 58.9352 45.1719C58.9352 44.8082 59.002 44.5028 59.1355 44.2557C59.269 44.0085 59.4508 43.8097 59.6809 43.6591C59.911 43.5085 60.1724 43.3949 60.465 43.3182C60.7605 43.2415 61.0701 43.1875 61.394 43.1562C61.7747 43.1165 62.0815 43.0795 62.3145 43.0455C62.5474 43.0085 62.7164 42.9545 62.8216 42.8835C62.9267 42.8125 62.9792 42.7074 62.9792 42.5682V42.5426C62.9792 42.2727 62.894 42.0639 62.7235 41.9162C62.5559 41.7685 62.3173 41.6946 62.0076 41.6946C61.6809 41.6946 61.421 41.767 61.2278 41.9119C61.0346 42.054 60.9068 42.233 60.8443 42.4489L59.1653 42.3125C59.2505 41.9148 59.4181 41.571 59.6681 41.2812C59.9181 40.9886 60.2406 40.7642 60.6355 40.608C61.0332 40.4489 61.4934 40.3693 62.0162 40.3693C62.3798 40.3693 62.7278 40.4119 63.0602 40.4972C63.3954 40.5824 63.6923 40.7145 63.9508 40.8935C64.2122 41.0724 64.4181 41.3026 64.5687 41.5838C64.7193 41.8622 64.7946 42.196 64.7946 42.5852V47H63.073V46.0923H63.0218C62.9167 46.2969 62.7761 46.4773 62.6 46.6335C62.4238 46.7869 62.2122 46.9077 61.965 46.9957C61.7179 47.081 61.4324 47.1236 61.1085 47.1236ZM61.6284 45.8707C61.8954 45.8707 62.1312 45.8182 62.3358 45.7131C62.5403 45.6051 62.7008 45.4602 62.8173 45.2784C62.9338 45.0966 62.992 44.8906 62.992 44.6605V43.9659C62.9352 44.0028 62.8571 44.0369 62.7576 44.0682C62.661 44.0966 62.5517 44.1236 62.4295 44.1491C62.3074 44.1719 62.1852 44.1932 62.063 44.2131C61.9409 44.2301 61.8301 44.2457 61.7306 44.2599C61.5176 44.2912 61.3315 44.3409 61.1724 44.4091C61.0133 44.4773 60.8897 44.5696 60.8017 44.6861C60.7136 44.7997 60.6696 44.9418 60.6696 45.1122C60.6696 45.3594 60.7591 45.5483 60.938 45.679C61.1199 45.8068 61.35 45.8707 61.6284 45.8707ZM71.6447 38.0511L72.1987 39.2358C72.014 39.3892 71.8095 39.5028 71.5851 39.5767C71.3606 39.6477 71.0922 39.6946 70.7797 39.7173C70.47 39.7401 70.0922 39.7557 69.6461 39.7642C69.1404 39.7699 68.7285 39.8509 68.4103 40.0071C68.0922 40.1634 67.8507 40.4091 67.6859 40.7443C67.5211 41.0767 67.4132 41.5114 67.362 42.0483H67.426C67.622 41.6477 67.8975 41.3381 68.2527 41.1193C68.6106 40.9006 69.0524 40.7912 69.5779 40.7912C70.1348 40.7912 70.622 40.9134 71.0396 41.1577C71.46 41.402 71.7868 41.7528 72.0197 42.2102C72.2527 42.6676 72.3691 43.2159 72.3691 43.8551C72.3691 44.5199 72.2385 45.098 71.9771 45.5895C71.7186 46.0781 71.3507 46.4574 70.8734 46.7273C70.3961 46.9943 69.8279 47.1278 69.1689 47.1278C68.5069 47.1278 67.9359 46.9886 67.4558 46.7102C66.9785 46.4318 66.6092 46.0213 66.3478 45.4787C66.0893 44.9361 65.96 44.2685 65.96 43.4759V42.9389C65.96 41.3622 66.2669 40.1932 66.8805 39.4318C67.4941 38.6705 68.3961 38.2841 69.5865 38.2727C69.9103 38.267 70.2029 38.2656 70.4643 38.2685C70.7257 38.2713 70.9544 38.2585 71.1504 38.2301C71.3493 38.2017 71.514 38.142 71.6447 38.0511ZM69.1774 45.7216C69.4558 45.7216 69.6944 45.6491 69.8933 45.5043C70.095 45.3594 70.2498 45.152 70.3578 44.8821C70.4686 44.6122 70.524 44.2898 70.524 43.9148C70.524 43.5426 70.4686 43.2273 70.3578 42.9688C70.2498 42.7074 70.095 42.5085 69.8933 42.3722C69.6916 42.2358 69.4501 42.1676 69.1689 42.1676C68.9586 42.1676 68.7697 42.206 68.6021 42.2827C68.4345 42.3594 68.291 42.473 68.1717 42.6236C68.0552 42.7713 67.9643 42.9545 67.899 43.1733C67.8365 43.3892 67.8052 43.6364 67.8052 43.9148C67.8052 44.4744 67.926 44.9162 68.1674 45.2401C68.4118 45.5611 68.7484 45.7216 69.1774 45.7216Z" fill="#8D8D8D"/>
<path d="M186.826 264.328H184.96C184.925 264.087 184.856 263.872 184.751 263.685C184.646 263.494 184.511 263.332 184.346 263.199C184.181 263.065 183.991 262.963 183.775 262.892C183.562 262.821 183.33 262.786 183.08 262.786C182.629 262.786 182.235 262.898 181.9 263.122C181.565 263.344 181.305 263.668 181.12 264.094C180.935 264.517 180.843 265.031 180.843 265.636C180.843 266.259 180.935 266.781 181.12 267.205C181.308 267.628 181.569 267.947 181.904 268.163C182.239 268.379 182.627 268.487 183.067 268.487C183.315 268.487 183.543 268.455 183.754 268.389C183.967 268.324 184.156 268.229 184.32 268.104C184.485 267.976 184.621 267.821 184.729 267.639C184.84 267.457 184.917 267.25 184.96 267.017L186.826 267.026C186.778 267.426 186.657 267.812 186.464 268.185C186.273 268.554 186.016 268.885 185.692 269.178C185.371 269.467 184.988 269.697 184.542 269.868C184.099 270.036 183.597 270.119 183.038 270.119C182.259 270.119 181.563 269.943 180.95 269.591C180.339 269.239 179.856 268.729 179.501 268.061C179.148 267.393 178.972 266.585 178.972 265.636C178.972 264.685 179.151 263.875 179.509 263.207C179.867 262.54 180.353 262.031 180.967 261.682C181.58 261.33 182.271 261.153 183.038 261.153C183.543 261.153 184.012 261.224 184.444 261.366C184.879 261.509 185.263 261.716 185.599 261.989C185.934 262.259 186.207 262.589 186.417 262.982C186.63 263.374 186.766 263.822 186.826 264.328ZM187.774 264.882V263.455H193.706V264.882H191.597V270H189.866V264.882H187.774ZM197.529 270.128C196.868 270.128 196.295 269.987 195.812 269.706C195.332 269.422 194.961 269.027 194.7 268.521C194.439 268.013 194.308 267.423 194.308 266.753C194.308 266.077 194.439 265.486 194.7 264.98C194.961 264.472 195.332 264.077 195.812 263.795C196.295 263.511 196.868 263.369 197.529 263.369C198.191 263.369 198.762 263.511 199.243 263.795C199.725 264.077 200.098 264.472 200.359 264.98C200.62 265.486 200.751 266.077 200.751 266.753C200.751 267.423 200.62 268.013 200.359 268.521C200.098 269.027 199.725 269.422 199.243 269.706C198.762 269.987 198.191 270.128 197.529 270.128ZM197.538 268.722C197.839 268.722 198.091 268.636 198.292 268.466C198.494 268.293 198.646 268.057 198.748 267.759C198.853 267.46 198.906 267.121 198.906 266.74C198.906 266.359 198.853 266.02 198.748 265.722C198.646 265.423 198.494 265.187 198.292 265.014C198.091 264.841 197.839 264.754 197.538 264.754C197.234 264.754 196.978 264.841 196.771 265.014C196.566 265.187 196.412 265.423 196.306 265.722C196.204 266.02 196.153 266.359 196.153 266.74C196.153 267.121 196.204 267.46 196.306 267.759C196.412 268.057 196.566 268.293 196.771 268.466C196.978 268.636 197.234 268.722 197.538 268.722ZM201.548 270L201.539 268.56H201.757C201.91 268.56 202.042 268.523 202.153 268.449C202.267 268.372 202.36 268.249 202.434 268.078C202.508 267.908 202.566 267.682 202.609 267.401C202.652 267.116 202.68 266.767 202.694 266.352L202.801 263.455H207.778V270H206.048V264.882H204.433L204.331 266.881C204.305 267.429 204.238 267.901 204.13 268.295C204.025 268.69 203.879 269.014 203.691 269.267C203.504 269.517 203.278 269.702 203.014 269.821C202.75 269.94 202.443 270 202.093 270H201.548ZM212.143 270.128C211.481 270.128 210.908 269.987 210.425 269.706C209.945 269.422 209.575 269.027 209.313 268.521C209.052 268.013 208.921 267.423 208.921 266.753C208.921 266.077 209.052 265.486 209.313 264.98C209.575 264.472 209.945 264.077 210.425 263.795C210.908 263.511 211.481 263.369 212.143 263.369C212.805 263.369 213.376 263.511 213.856 263.795C214.339 264.077 214.711 264.472 214.972 264.98C215.234 265.486 215.364 266.077 215.364 266.753C215.364 267.423 215.234 268.013 214.972 268.521C214.711 269.027 214.339 269.422 213.856 269.706C213.376 269.987 212.805 270.128 212.143 270.128ZM212.151 268.722C212.452 268.722 212.704 268.636 212.906 268.466C213.107 268.293 213.259 268.057 213.362 267.759C213.467 267.46 213.519 267.121 213.519 266.74C213.519 266.359 213.467 266.02 213.362 265.722C213.259 265.423 213.107 265.187 212.906 265.014C212.704 264.841 212.452 264.754 212.151 264.754C211.847 264.754 211.592 264.841 211.384 265.014C211.18 265.187 211.025 265.423 210.92 265.722C210.817 266.02 210.766 266.359 210.766 266.74C210.766 267.121 210.817 267.46 210.92 267.759C211.025 268.057 211.18 268.293 211.384 268.466C211.592 268.636 211.847 268.722 212.151 268.722ZM216.545 270V263.455H219.336C220.143 263.455 220.781 263.608 221.249 263.915C221.718 264.222 221.952 264.658 221.952 265.223C221.952 265.578 221.82 265.874 221.556 266.109C221.292 266.345 220.925 266.504 220.457 266.587C220.849 266.615 221.183 266.705 221.458 266.855C221.737 267.003 221.948 267.195 222.093 267.43C222.241 267.666 222.315 267.928 222.315 268.214C222.315 268.587 222.215 268.906 222.016 269.173C221.82 269.44 221.532 269.645 221.151 269.787C220.773 269.929 220.312 270 219.766 270H216.545ZM218.237 268.641H219.766C220.019 268.641 220.217 268.581 220.359 268.462C220.504 268.339 220.576 268.173 220.576 267.963C220.576 267.73 220.504 267.547 220.359 267.413C220.217 267.28 220.019 267.213 219.766 267.213H218.237V268.641ZM218.237 266.148H219.374C219.556 266.148 219.711 266.122 219.839 266.071C219.969 266.017 220.069 265.94 220.137 265.841C220.208 265.741 220.244 265.624 220.244 265.487C220.244 265.286 220.163 265.128 220.001 265.014C219.839 264.901 219.617 264.844 219.336 264.844H218.237V266.148ZM225.325 270.124C224.908 270.124 224.536 270.051 224.209 269.906C223.882 269.759 223.624 269.541 223.433 269.254C223.246 268.964 223.152 268.604 223.152 268.172C223.152 267.808 223.219 267.503 223.352 267.256C223.486 267.009 223.668 266.81 223.898 266.659C224.128 266.509 224.389 266.395 224.682 266.318C224.977 266.241 225.287 266.188 225.611 266.156C225.991 266.116 226.298 266.08 226.531 266.045C226.764 266.009 226.933 265.955 227.038 265.884C227.143 265.812 227.196 265.707 227.196 265.568V265.543C227.196 265.273 227.111 265.064 226.94 264.916C226.773 264.768 226.534 264.695 226.224 264.695C225.898 264.695 225.638 264.767 225.445 264.912C225.251 265.054 225.124 265.233 225.061 265.449L223.382 265.312C223.467 264.915 223.635 264.571 223.885 264.281C224.135 263.989 224.457 263.764 224.852 263.608C225.25 263.449 225.71 263.369 226.233 263.369C226.597 263.369 226.945 263.412 227.277 263.497C227.612 263.582 227.909 263.714 228.168 263.893C228.429 264.072 228.635 264.303 228.786 264.584C228.936 264.862 229.011 265.196 229.011 265.585V270H227.29V269.092H227.239C227.134 269.297 226.993 269.477 226.817 269.634C226.641 269.787 226.429 269.908 226.182 269.996C225.935 270.081 225.649 270.124 225.325 270.124ZM225.845 268.871C226.112 268.871 226.348 268.818 226.553 268.713C226.757 268.605 226.918 268.46 227.034 268.278C227.151 268.097 227.209 267.891 227.209 267.661V266.966C227.152 267.003 227.074 267.037 226.974 267.068C226.878 267.097 226.768 267.124 226.646 267.149C226.524 267.172 226.402 267.193 226.28 267.213C226.158 267.23 226.047 267.246 225.947 267.26C225.734 267.291 225.548 267.341 225.389 267.409C225.23 267.477 225.107 267.57 225.018 267.686C224.93 267.8 224.886 267.942 224.886 268.112C224.886 268.359 224.976 268.548 225.155 268.679C225.337 268.807 225.567 268.871 225.845 268.871ZM234.255 270V264.878H233.028C232.695 264.878 232.442 264.955 232.269 265.108C232.096 265.261 232.011 265.443 232.013 265.653C232.011 265.866 232.093 266.047 232.261 266.195C232.431 266.339 232.681 266.412 233.011 266.412H234.86V267.639H233.011C232.451 267.639 231.967 267.554 231.558 267.384C231.148 267.213 230.833 266.976 230.612 266.672C230.39 266.365 230.281 266.009 230.283 265.602C230.281 265.176 230.39 264.803 230.612 264.482C230.833 264.158 231.15 263.906 231.562 263.727C231.977 263.545 232.465 263.455 233.028 263.455H235.947V270H234.255ZM230.096 270L231.915 266.591H233.65L231.835 270H230.096Z" fill="#8D8D8D"/>
<path d="M40.277 330.119C39.6406 330.119 39.0739 330.01 38.5767 329.791C38.0824 329.57 37.6918 329.266 37.4048 328.879C37.1207 328.49 36.9744 328.041 36.9659 327.533H38.8239C38.8352 327.746 38.9048 327.933 39.0327 328.095C39.1634 328.254 39.3366 328.378 39.5526 328.466C39.7685 328.554 40.0114 328.598 40.2812 328.598C40.5625 328.598 40.8111 328.548 41.027 328.449C41.2429 328.349 41.4119 328.212 41.5341 328.036C41.6563 327.859 41.7173 327.656 41.7173 327.426C41.7173 327.193 41.652 326.987 41.5213 326.808C41.3935 326.626 41.2088 326.484 40.9673 326.382C40.7287 326.28 40.4446 326.229 40.1151 326.229H39.3011V324.874H40.1151C40.3935 324.874 40.6392 324.825 40.8523 324.729C41.0682 324.632 41.2358 324.499 41.3551 324.328C41.4744 324.155 41.5341 323.953 41.5341 323.723C41.5341 323.504 41.4815 323.312 41.3764 323.148C41.2741 322.98 41.1293 322.849 40.9418 322.756C40.7571 322.662 40.5412 322.615 40.294 322.615C40.044 322.615 39.8153 322.661 39.608 322.751C39.4006 322.839 39.2344 322.966 39.1094 323.131C38.9844 323.295 38.9176 323.489 38.9091 323.71H37.1406C37.1491 323.207 37.2926 322.764 37.571 322.381C37.8494 321.997 38.2244 321.697 38.696 321.482C39.1705 321.263 39.706 321.153 40.3026 321.153C40.9048 321.153 41.4318 321.263 41.8835 321.482C42.3352 321.7 42.6861 321.996 42.9361 322.368C43.1889 322.737 43.3139 323.152 43.3111 323.612C43.3139 324.101 43.1619 324.509 42.8551 324.835C42.5511 325.162 42.1548 325.369 41.6662 325.457V325.526C42.3082 325.608 42.7969 325.831 43.1321 326.195C43.4702 326.555 43.6378 327.007 43.6349 327.55C43.6378 328.047 43.4943 328.489 43.2045 328.875C42.9176 329.261 42.5213 329.565 42.0156 329.787C41.5099 330.009 40.9304 330.119 40.277 330.119ZM48.3832 330.192C47.6502 330.189 47.0195 330.009 46.4911 329.651C45.9656 329.293 45.5607 328.774 45.2766 328.095C44.9954 327.416 44.8562 326.599 44.859 325.645C44.859 324.693 44.9996 323.882 45.2809 323.212C45.565 322.541 45.9698 322.031 46.4954 321.682C47.0238 321.33 47.6531 321.153 48.3832 321.153C49.1133 321.153 49.7411 321.33 50.2667 321.682C50.7951 322.034 51.2013 322.545 51.4854 323.216C51.7695 323.884 51.9102 324.693 51.9073 325.645C51.9073 326.602 51.7653 327.42 51.4812 328.099C51.1999 328.778 50.7965 329.297 50.271 329.655C49.7454 330.013 49.1161 330.192 48.3832 330.192ZM48.3832 328.662C48.8832 328.662 49.2823 328.411 49.5806 327.908C49.8789 327.405 50.0266 326.651 50.0238 325.645C50.0238 324.983 49.9556 324.432 49.8192 323.991C49.6857 323.551 49.4954 323.22 49.2482 322.999C49.0039 322.777 48.7156 322.666 48.3832 322.666C47.886 322.666 47.4883 322.915 47.19 323.412C46.8917 323.909 46.7411 324.653 46.7383 325.645C46.7383 326.315 46.805 326.875 46.9386 327.324C47.0749 327.77 47.2667 328.105 47.5138 328.33C47.761 328.551 48.0508 328.662 48.3832 328.662ZM56.0174 330V323.455H57.8327V325.994H58.3441L60.1254 323.455H62.256L59.9421 326.702L62.2816 330H60.1254L58.5103 327.678H57.8327V330H56.0174ZM64.9151 330.124C64.4975 330.124 64.1254 330.051 63.7987 329.906C63.4719 329.759 63.2134 329.541 63.0231 329.254C62.8356 328.964 62.7418 328.604 62.7418 328.172C62.7418 327.808 62.8086 327.503 62.9421 327.256C63.0756 327.009 63.2575 326.81 63.4876 326.659C63.7177 326.509 63.979 326.395 64.2717 326.318C64.5671 326.241 64.8768 326.188 65.2006 326.156C65.5813 326.116 65.8881 326.08 66.1211 326.045C66.354 326.009 66.5231 325.955 66.6282 325.884C66.7333 325.812 66.7859 325.707 66.7859 325.568V325.543C66.7859 325.273 66.7006 325.064 66.5302 324.916C66.3626 324.768 66.1239 324.695 65.8143 324.695C65.4876 324.695 65.2276 324.767 65.0344 324.912C64.8413 325.054 64.7134 325.233 64.6509 325.449L62.9719 325.312C63.0572 324.915 63.2248 324.571 63.4748 324.281C63.7248 323.989 64.0472 323.764 64.4421 323.608C64.8398 323.449 65.3001 323.369 65.8228 323.369C66.1864 323.369 66.5344 323.412 66.8668 323.497C67.2021 323.582 67.4989 323.714 67.7575 323.893C68.0188 324.072 68.2248 324.303 68.3754 324.584C68.5259 324.862 68.6012 325.196 68.6012 325.585V330H66.8796V329.092H66.8285C66.7234 329.297 66.5827 329.477 66.4066 329.634C66.2305 329.787 66.0188 329.908 65.7717 329.996C65.5245 330.081 65.239 330.124 64.9151 330.124ZM65.435 328.871C65.7021 328.871 65.9379 328.818 66.1424 328.713C66.3469 328.605 66.5075 328.46 66.6239 328.278C66.7404 328.097 66.7987 327.891 66.7987 327.661V326.966C66.7418 327.003 66.6637 327.037 66.5643 327.068C66.4677 327.097 66.3583 327.124 66.2362 327.149C66.114 327.172 65.9918 327.193 65.8697 327.213C65.7475 327.23 65.6367 327.246 65.5373 327.26C65.3242 327.291 65.1381 327.341 64.979 327.409C64.82 327.477 64.6964 327.57 64.6083 327.686C64.5202 327.8 64.4762 327.942 64.4762 328.112C64.4762 328.359 64.5657 328.548 64.7447 328.679C64.9265 328.807 65.1566 328.871 65.435 328.871ZM75.4513 321.051L76.0053 322.236C75.8207 322.389 75.6161 322.503 75.3917 322.577C75.1673 322.648 74.8988 322.695 74.5863 322.717C74.2766 322.74 73.8988 322.756 73.4528 322.764C72.9471 322.77 72.5352 322.851 72.217 323.007C71.8988 323.163 71.6573 323.409 71.4925 323.744C71.3278 324.077 71.2198 324.511 71.1687 325.048H71.2326C71.4286 324.648 71.7042 324.338 72.0593 324.119C72.4173 323.901 72.859 323.791 73.3846 323.791C73.9414 323.791 74.4286 323.913 74.8462 324.158C75.2667 324.402 75.5934 324.753 75.8263 325.21C76.0593 325.668 76.1758 326.216 76.1758 326.855C76.1758 327.52 76.0451 328.098 75.7837 328.589C75.5252 329.078 75.1573 329.457 74.68 329.727C74.2028 329.994 73.6346 330.128 72.9755 330.128C72.3136 330.128 71.7425 329.989 71.2624 329.71C70.7852 329.432 70.4158 329.021 70.1545 328.479C69.896 327.936 69.7667 327.268 69.7667 326.476V325.939C69.7667 324.362 70.0735 323.193 70.6871 322.432C71.3008 321.67 72.2028 321.284 73.3931 321.273C73.717 321.267 74.0096 321.266 74.271 321.268C74.5323 321.271 74.761 321.259 74.957 321.23C75.1559 321.202 75.3207 321.142 75.4513 321.051ZM72.984 328.722C73.2624 328.722 73.5011 328.649 73.6999 328.504C73.9016 328.359 74.0565 328.152 74.1644 327.882C74.2752 327.612 74.3306 327.29 74.3306 326.915C74.3306 326.543 74.2752 326.227 74.1644 325.969C74.0565 325.707 73.9016 325.509 73.6999 325.372C73.4982 325.236 73.2567 325.168 72.9755 325.168C72.7653 325.168 72.5763 325.206 72.4087 325.283C72.2411 325.359 72.0977 325.473 71.9783 325.624C71.8619 325.771 71.771 325.955 71.7056 326.173C71.6431 326.389 71.6119 326.636 71.6119 326.915C71.6119 327.474 71.7326 327.916 71.9741 328.24C72.2184 328.561 72.555 328.722 72.984 328.722Z" fill="#8D8D8D"/>
<path d="M19.7908 260.82L21.3998 259.211L27.2455 261.658L27.3178 261.586L24.8711 255.74L26.4802 254.131L32.6513 260.302L31.3857 261.568L27.3691 257.551L27.3178 257.602L29.7073 263.186L28.8455 264.047L23.2469 261.643L23.1957 261.694L27.2274 265.726L25.9619 266.991L19.7908 260.82ZM35.1093 258.019C34.814 258.314 34.4996 258.526 34.1662 258.654C33.8307 258.781 33.4942 258.81 33.1567 258.742C32.8193 258.67 32.4978 258.481 32.1925 258.175C31.9354 257.918 31.7666 257.655 31.6863 257.386C31.6059 257.117 31.5939 256.848 31.6501 256.578C31.7064 256.309 31.8108 256.044 31.9635 255.783C32.1182 255.52 32.299 255.263 32.5059 255.011C32.7469 254.714 32.9378 254.471 33.0784 254.282C33.217 254.091 33.2984 253.934 33.3225 253.809C33.3466 253.685 33.3094 253.573 33.211 253.475L33.1929 253.457C33.0021 253.266 32.7941 253.178 32.5692 253.194C32.3462 253.209 32.1252 253.325 31.9062 253.544C31.6752 253.775 31.5426 254.01 31.5085 254.249C31.4723 254.486 31.5085 254.703 31.617 254.9L30.3333 255.991C30.1124 255.649 29.9878 255.288 29.9597 254.906C29.9296 254.522 29.9989 254.136 30.1676 253.746C30.3363 253.352 30.6055 252.971 30.9752 252.601C31.2323 252.344 31.5085 252.128 31.8038 251.953C32.1011 251.776 32.4044 251.66 32.7138 251.603C33.0252 251.545 33.3335 251.562 33.6389 251.655C33.9422 251.745 34.2315 251.928 34.5067 252.203L37.6284 255.325L36.411 256.542L35.7692 255.9L35.7331 255.937C35.8034 256.155 35.8315 256.382 35.8174 256.618C35.8014 256.851 35.7371 257.086 35.6246 257.323C35.5101 257.558 35.3383 257.79 35.1093 258.019ZM34.591 256.765C34.7799 256.576 34.9094 256.372 34.9797 256.153C35.048 255.933 35.0591 255.717 35.0129 255.506C34.9667 255.295 34.8622 255.108 34.6995 254.945L34.2084 254.454C34.1943 254.52 34.1632 254.6 34.1149 254.692C34.0667 254.78 34.0085 254.877 33.9402 254.981C33.8699 255.084 33.7986 255.185 33.7262 255.286C33.6519 255.384 33.5846 255.473 33.5244 255.554C33.3958 255.727 33.2994 255.893 33.2351 256.054C33.1708 256.215 33.1487 256.367 33.1688 256.512C33.1869 256.655 33.2562 256.786 33.3767 256.907C33.5515 257.082 33.7483 257.152 33.9673 257.118C34.1863 257.08 34.3942 256.962 34.591 256.765ZM40.8058 252.328C40.3318 252.802 39.8235 253.11 39.2811 253.25C38.7388 253.387 38.1964 253.367 37.654 253.19C37.1136 253.011 36.6094 252.688 36.1413 252.22C35.6673 251.746 35.3428 251.238 35.1681 250.698C34.9933 250.154 34.9752 249.611 35.1138 249.071C35.2504 248.528 35.5528 248.023 36.0208 247.555C36.4246 247.151 36.8515 246.871 37.3014 246.715C37.7514 246.558 38.1974 246.524 38.6393 246.612C39.0813 246.7 39.4901 246.914 39.8657 247.254L38.6544 248.465C38.3892 248.268 38.113 248.173 37.8257 248.179C37.5385 248.181 37.2773 248.299 37.0423 248.535C36.8434 248.733 36.7239 248.961 36.6837 249.219C36.6436 249.472 36.6847 249.742 36.8073 250.029C36.9298 250.316 37.1367 250.606 37.428 250.897C37.7233 251.192 38.0146 251.403 38.3018 251.53C38.5911 251.654 38.8643 251.696 39.1214 251.656C39.3786 251.616 39.6066 251.497 39.8054 251.298C39.9521 251.151 40.0535 250.989 40.1098 250.813C40.168 250.634 40.1781 250.449 40.1399 250.258C40.1017 250.063 40.0134 249.872 39.8748 249.686L41.0861 248.474C41.4195 248.848 41.6345 249.256 41.7309 249.698C41.8273 250.136 41.8002 250.581 41.6495 251.032C41.4989 251.484 41.2177 251.916 40.8058 252.328ZM39.6699 246.046L38.6604 245.036L42.8548 240.842L43.8643 241.851L42.3727 243.343L45.9916 246.962L44.7683 248.185L41.1494 244.566L39.6699 246.046ZM50.2953 242.839C49.8192 243.315 49.313 243.628 48.7766 243.779C48.2403 243.926 47.7019 243.913 47.1615 243.743C46.6191 243.57 46.1039 243.239 45.6157 242.751C45.1396 242.275 44.8142 241.765 44.6394 241.221C44.4647 240.676 44.4446 240.136 44.5792 239.6C44.7158 239.061 45.0111 238.565 45.4651 238.111C45.7704 237.806 46.1039 237.571 46.4655 237.406C46.827 237.237 47.2037 237.152 47.5954 237.15C47.9892 237.146 48.3889 237.236 48.7947 237.421C49.1985 237.604 49.5972 237.892 49.9909 238.286L50.3435 238.638L46.4353 242.546L45.6398 241.751L48.3397 239.051C48.1549 238.866 47.951 238.743 47.728 238.68C47.505 238.618 47.282 238.618 47.0591 238.68C46.8361 238.739 46.6312 238.861 46.4444 239.048C46.2495 239.243 46.1219 239.461 46.0617 239.702C46.0014 239.939 46.0044 240.175 46.0707 240.41C46.135 240.643 46.2575 240.852 46.4383 241.037L47.1947 241.793C47.4237 242.022 47.6637 242.178 47.9148 242.26C48.1679 242.341 48.418 242.348 48.6651 242.281C48.9122 242.215 49.1432 242.074 49.3582 241.859C49.5008 241.717 49.6113 241.566 49.6896 241.407C49.768 241.249 49.8091 241.087 49.8132 240.922C49.8172 240.758 49.783 240.595 49.7107 240.434L50.9763 239.325C51.2013 239.671 51.3268 240.043 51.3529 240.443C51.379 240.839 51.3047 241.243 51.13 241.655C50.9552 242.062 50.677 242.457 50.2953 242.839ZM54.9025 241.522L48.5386 235.158L49.8041 233.892L50.5815 234.67L50.6388 234.613C50.5705 234.432 50.5253 234.224 50.5032 233.989C50.4811 233.75 50.5132 233.501 50.5996 233.242C50.686 232.978 50.8588 232.717 51.1179 232.458C51.4554 232.121 51.8551 231.898 52.3172 231.789C52.7772 231.679 53.2694 231.715 53.7937 231.898C54.316 232.078 54.8423 232.434 55.3726 232.964C55.8889 233.481 56.2414 234 56.4302 234.522C56.6191 235.04 56.6623 235.534 56.5598 236.002C56.4574 236.466 56.2304 236.874 55.8788 237.225C55.6297 237.474 55.3766 237.645 55.1195 237.737C54.8644 237.828 54.6193 237.866 54.3843 237.852C54.1472 237.836 53.9353 237.793 53.7485 237.722L53.7093 237.761L56.1862 240.238L54.9025 241.522ZM52.1093 236.216C52.3845 236.491 52.6627 236.693 52.9439 236.821C53.2252 236.95 53.4953 236.999 53.7545 236.969C54.0116 236.937 54.2436 236.817 54.4505 236.61C54.6595 236.401 54.779 236.167 54.8091 235.908C54.8372 235.647 54.786 235.377 54.6554 235.098C54.5249 234.814 54.325 234.538 54.0558 234.269C53.7886 234.002 53.5164 233.804 53.2392 233.675C52.962 233.547 52.6938 233.498 52.4347 233.528C52.1755 233.558 51.9405 233.678 51.7296 233.889C51.5207 234.098 51.3991 234.33 51.365 234.585C51.3328 234.839 51.3801 235.105 51.5066 235.384C51.6332 235.663 51.834 235.94 52.1093 236.216ZM60.7181 232.416C60.244 232.89 59.7358 233.197 59.1934 233.338C58.651 233.475 58.1086 233.455 57.5662 233.278C57.0259 233.099 56.5216 232.776 56.0536 232.307C55.5795 231.833 55.2551 231.326 55.0803 230.786C54.9055 230.241 54.8875 229.699 55.0261 229.159C55.1627 228.616 55.465 228.111 55.9331 227.643C56.3368 227.239 56.7637 226.959 57.2137 226.802C57.6637 226.646 58.1096 226.611 58.5516 226.7C58.9935 226.788 59.4023 227.002 59.7779 227.342L58.5666 228.553C58.3015 228.356 58.0252 228.261 57.738 228.267C57.4507 228.269 57.1896 228.387 56.9545 228.622C56.7557 228.821 56.6361 229.049 56.596 229.306C56.5558 229.559 56.597 229.83 56.7195 230.117C56.842 230.404 57.049 230.693 57.3402 230.985C57.6355 231.28 57.9268 231.491 58.2141 231.617C58.5033 231.742 58.7765 231.784 59.0337 231.744C59.2908 231.704 59.5188 231.584 59.7177 231.385C59.8643 231.239 59.9658 231.077 60.022 230.9C60.0803 230.721 60.0903 230.537 60.0522 230.346C60.014 230.151 59.9256 229.96 59.787 229.773L60.9983 228.562C61.3318 228.936 61.5467 229.343 61.6431 229.785C61.7396 230.223 61.7124 230.668 61.5618 231.12C61.4111 231.572 61.1299 232.004 60.7181 232.416ZM63.5166 229.437L58.8883 224.808L60.1719 223.525L61.9678 225.321L62.3294 224.959L61.7931 221.904L63.2997 220.397L63.9596 224.329L67.9461 225.007L66.4214 226.532L63.6372 226.032L63.158 226.511L64.8003 228.153L63.5166 229.437ZM68.0214 221.545L66.7528 216.944L68.0184 215.678L72.6467 220.306L71.4234 221.53L68.4794 218.586L69.7631 223.19L68.4885 224.465L63.8601 219.836L65.0865 218.61L68.0214 221.545ZM75.8754 217.259C75.3993 217.735 74.8931 218.048 74.3568 218.199C73.8204 218.345 73.282 218.333 72.7417 218.163C72.1993 217.99 71.684 217.659 71.1959 217.171C70.7198 216.695 70.3943 216.185 70.2196 215.64C70.0448 215.096 70.0247 214.556 70.1593 214.019C70.2959 213.481 70.5912 212.985 71.0452 212.531C71.3505 212.225 71.684 211.99 72.0456 211.826C72.4072 211.657 72.7838 211.572 73.1756 211.57C73.5693 211.566 73.969 211.656 74.3748 211.841C74.7786 212.024 75.1774 212.312 75.5711 212.706L75.9236 213.058L72.0155 216.966L71.22 216.171L73.9198 213.471C73.735 213.286 73.5311 213.163 73.3081 213.1C73.0852 213.038 72.8622 213.038 72.6392 213.1C72.4162 213.159 72.2113 213.281 72.0245 213.468C71.8296 213.663 71.7021 213.881 71.6418 214.122C71.5816 214.359 71.5846 214.595 71.6509 214.83C71.7151 215.063 71.8377 215.272 72.0185 215.457L72.7748 216.213C73.0038 216.442 73.2439 216.598 73.495 216.68C73.7481 216.76 73.9982 216.767 74.2453 216.701C74.4923 216.635 74.7234 216.494 74.9383 216.279C75.0809 216.137 75.1914 215.986 75.2698 215.827C75.3481 215.669 75.3893 215.507 75.3933 215.342C75.3973 215.177 75.3632 215.015 75.2909 214.854L76.5564 213.745C76.7814 214.091 76.907 214.463 76.9331 214.863C76.9592 215.259 76.8849 215.663 76.7101 216.074C76.5353 216.482 76.2571 216.877 75.8754 217.259Z" fill="#8D8D8D"/>
<path d="M581.727 417.563L573 417.563L573 415.718L579.976 415.718L579.976 415.667L578.723 413.668L580.359 413.668L581.727 415.828L581.727 417.563ZM581.727 423.434L573 423.434L573 421.589L579.976 421.589L579.976 421.538L578.723 419.539L580.359 419.539L581.727 421.7L581.727 423.434ZM573 428.303L579.545 428.303L579.545 430.118L577.006 430.118L577.006 430.629L579.545 432.411L579.545 434.541L576.298 432.227L573 434.567L573 432.411L575.322 430.795L575.322 430.118L573 430.118L573 428.303ZM572.876 437.2C572.876 436.783 572.949 436.411 573.094 436.084C573.241 435.757 573.459 435.499 573.746 435.308C574.036 435.121 574.396 435.027 574.828 435.027C575.192 435.027 575.497 435.094 575.744 435.227C575.991 435.361 576.19 435.543 576.341 435.773C576.491 436.003 576.605 436.264 576.682 436.557C576.759 436.852 576.812 437.162 576.844 437.486C576.884 437.866 576.92 438.173 576.955 438.406C576.991 438.639 577.045 438.808 577.116 438.913C577.187 439.018 577.293 439.071 577.432 439.071L577.457 439.071C577.727 439.071 577.936 438.986 578.084 438.815C578.232 438.648 578.305 438.409 578.305 438.099C578.305 437.773 578.233 437.513 578.088 437.32C577.946 437.126 577.767 436.999 577.551 436.936L577.687 435.257C578.085 435.342 578.429 435.51 578.719 435.76C579.011 436.01 579.236 436.332 579.392 436.727C579.551 437.125 579.631 437.585 579.631 438.108C579.631 438.472 579.588 438.82 579.503 439.152C579.418 439.487 579.286 439.784 579.107 440.043C578.928 440.304 578.697 440.51 578.416 440.661C578.138 440.811 577.804 440.886 577.415 440.886L573 440.886L573 439.165L573.908 439.165L573.908 439.114C573.703 439.009 573.523 438.868 573.366 438.692C573.213 438.516 573.092 438.304 573.004 438.057C572.919 437.81 572.876 437.524 572.876 437.2ZM574.129 437.72C574.129 437.987 574.182 438.223 574.287 438.428C574.395 438.632 574.54 438.793 574.722 438.909C574.903 439.026 575.109 439.084 575.339 439.084L576.034 439.084C575.997 439.027 575.963 438.949 575.932 438.849C575.903 438.753 575.876 438.643 575.851 438.521C575.828 438.399 575.807 438.277 575.787 438.155C575.77 438.033 575.754 437.922 575.74 437.822C575.709 437.609 575.659 437.423 575.591 437.264C575.523 437.105 575.43 436.982 575.314 436.893C575.2 436.805 575.058 436.761 574.888 436.761C574.641 436.761 574.452 436.851 574.321 437.03C574.193 437.212 574.129 437.442 574.129 437.72ZM581.949 447.737L580.764 448.29C580.611 448.106 580.497 447.901 580.423 447.677C580.352 447.452 580.305 447.184 580.283 446.871C580.26 446.562 580.244 446.184 580.236 445.738C580.23 445.232 580.149 444.82 579.993 444.502C579.837 444.184 579.591 443.942 579.256 443.778C578.923 443.613 578.489 443.505 577.952 443.454L577.952 443.518C578.352 443.714 578.662 443.989 578.881 444.344C579.099 444.702 579.209 445.144 579.209 445.67C579.209 446.227 579.087 446.714 578.842 447.131C578.598 447.552 578.247 447.879 577.79 448.112C577.332 448.344 576.784 448.461 576.145 448.461C575.48 448.461 574.902 448.33 574.411 448.069C573.922 447.81 573.543 447.442 573.273 446.965C573.006 446.488 572.872 445.92 572.872 445.261C572.872 444.599 573.011 444.028 573.29 443.548C573.568 443.07 573.979 442.701 574.521 442.44C575.064 442.181 575.732 442.052 576.524 442.052L577.061 442.052C578.638 442.052 579.807 442.359 580.568 442.972C581.33 443.586 581.716 444.488 581.727 445.678C581.733 446.002 581.734 446.295 581.732 446.556C581.729 446.817 581.741 447.046 581.77 447.242C581.798 447.441 581.858 447.606 581.949 447.737ZM574.278 445.269C574.278 445.548 574.351 445.786 574.496 445.985C574.641 446.187 574.848 446.342 575.118 446.45C575.388 446.56 575.71 446.616 576.085 446.616C576.457 446.616 576.773 446.56 577.031 446.45C577.293 446.342 577.491 446.187 577.628 445.985C577.764 445.783 577.832 445.542 577.832 445.261C577.832 445.05 577.794 444.862 577.717 444.694C577.641 444.526 577.527 444.383 577.376 444.263C577.229 444.147 577.045 444.056 576.827 443.991C576.611 443.928 576.364 443.897 576.085 443.897C575.526 443.897 575.084 444.018 574.76 444.259C574.439 444.504 574.278 444.84 574.278 445.269Z" fill="#8D8D8D"/>
<path d="M669.543 409.273V418H667.698V411.024H667.647L665.648 412.277V410.641L667.809 409.273H669.543ZM674.843 418.119C674.207 418.119 673.64 418.01 673.143 417.791C672.649 417.57 672.258 417.266 671.971 416.879C671.687 416.49 671.541 416.041 671.532 415.533H673.39C673.402 415.746 673.471 415.933 673.599 416.095C673.73 416.254 673.903 416.378 674.119 416.466C674.335 416.554 674.578 416.598 674.848 416.598C675.129 416.598 675.377 416.548 675.593 416.449C675.809 416.349 675.978 416.212 676.1 416.036C676.223 415.859 676.284 415.656 676.284 415.426C676.284 415.193 676.218 414.987 676.088 414.808C675.96 414.626 675.775 414.484 675.534 414.382C675.295 414.28 675.011 414.229 674.681 414.229H673.868V412.874H674.681C674.96 412.874 675.206 412.825 675.419 412.729C675.635 412.632 675.802 412.499 675.922 412.328C676.041 412.155 676.1 411.953 676.1 411.723C676.1 411.504 676.048 411.312 675.943 411.148C675.841 410.98 675.696 410.849 675.508 410.756C675.324 410.662 675.108 410.615 674.86 410.615C674.61 410.615 674.382 410.661 674.174 410.751C673.967 410.839 673.801 410.966 673.676 411.131C673.551 411.295 673.484 411.489 673.475 411.71H671.707C671.716 411.207 671.859 410.764 672.137 410.381C672.416 409.997 672.791 409.697 673.262 409.482C673.737 409.263 674.272 409.153 674.869 409.153C675.471 409.153 675.998 409.263 676.45 409.482C676.902 409.7 677.252 409.996 677.502 410.368C677.755 410.737 677.88 411.152 677.877 411.612C677.88 412.101 677.728 412.509 677.422 412.835C677.118 413.162 676.721 413.369 676.233 413.457V413.526C676.875 413.608 677.363 413.831 677.699 414.195C678.037 414.555 678.204 415.007 678.201 415.55C678.204 416.047 678.061 416.489 677.771 416.875C677.484 417.261 677.088 417.565 676.582 417.787C676.076 418.009 675.497 418.119 674.843 418.119ZM682.322 418V411.455H684.137V413.994H684.649L686.43 411.455H688.561L686.247 414.702L688.586 418H686.43L684.815 415.678H684.137V418H682.322ZM691.22 418.124C690.802 418.124 690.43 418.051 690.103 417.906C689.777 417.759 689.518 417.541 689.328 417.254C689.14 416.964 689.047 416.604 689.047 416.172C689.047 415.808 689.113 415.503 689.247 415.256C689.38 415.009 689.562 414.81 689.792 414.659C690.022 414.509 690.284 414.395 690.576 414.318C690.872 414.241 691.181 414.188 691.505 414.156C691.886 414.116 692.193 414.08 692.426 414.045C692.659 414.009 692.828 413.955 692.933 413.884C693.038 413.812 693.091 413.707 693.091 413.568V413.543C693.091 413.273 693.005 413.064 692.835 412.916C692.667 412.768 692.429 412.695 692.119 412.695C691.792 412.695 691.532 412.767 691.339 412.912C691.146 413.054 691.018 413.233 690.956 413.449L689.277 413.312C689.362 412.915 689.529 412.571 689.779 412.281C690.029 411.989 690.352 411.764 690.747 411.608C691.145 411.449 691.605 411.369 692.127 411.369C692.491 411.369 692.839 411.412 693.172 411.497C693.507 411.582 693.804 411.714 694.062 411.893C694.324 412.072 694.529 412.303 694.68 412.584C694.831 412.862 694.906 413.196 694.906 413.585V418H693.184V417.092H693.133C693.028 417.297 692.887 417.477 692.711 417.634C692.535 417.787 692.324 417.908 692.076 417.996C691.829 418.081 691.544 418.124 691.22 418.124ZM691.74 416.871C692.007 416.871 692.243 416.818 692.447 416.713C692.652 416.605 692.812 416.46 692.929 416.278C693.045 416.097 693.103 415.891 693.103 415.661V414.966C693.047 415.003 692.968 415.037 692.869 415.068C692.772 415.097 692.663 415.124 692.541 415.149C692.419 415.172 692.297 415.193 692.174 415.213C692.052 415.23 691.941 415.246 691.842 415.26C691.629 415.291 691.443 415.341 691.284 415.409C691.125 415.477 691.001 415.57 690.913 415.686C690.825 415.8 690.781 415.942 690.781 416.112C690.781 416.359 690.87 416.548 691.049 416.679C691.231 416.807 691.461 416.871 691.74 416.871ZM701.756 409.051L702.31 410.236C702.125 410.389 701.921 410.503 701.696 410.577C701.472 410.648 701.203 410.695 700.891 410.717C700.581 410.74 700.203 410.756 699.757 410.764C699.252 410.77 698.84 410.851 698.522 411.007C698.203 411.163 697.962 411.409 697.797 411.744C697.632 412.077 697.525 412.511 697.473 413.048H697.537C697.733 412.648 698.009 412.338 698.364 412.119C698.722 411.901 699.164 411.791 699.689 411.791C700.246 411.791 700.733 411.913 701.151 412.158C701.571 412.402 701.898 412.753 702.131 413.21C702.364 413.668 702.48 414.216 702.48 414.855C702.48 415.52 702.35 416.098 702.088 416.589C701.83 417.078 701.462 417.457 700.985 417.727C700.507 417.994 699.939 418.128 699.28 418.128C698.618 418.128 698.047 417.989 697.567 417.71C697.09 417.432 696.721 417.021 696.459 416.479C696.201 415.936 696.071 415.268 696.071 414.476V413.939C696.071 412.362 696.378 411.193 696.992 410.432C697.605 409.67 698.507 409.284 699.698 409.273C700.022 409.267 700.314 409.266 700.576 409.268C700.837 409.271 701.066 409.259 701.262 409.23C701.461 409.202 701.625 409.142 701.756 409.051ZM699.289 416.722C699.567 416.722 699.806 416.649 700.005 416.504C700.206 416.359 700.361 416.152 700.469 415.882C700.58 415.612 700.635 415.29 700.635 414.915C700.635 414.543 700.58 414.227 700.469 413.969C700.361 413.707 700.206 413.509 700.005 413.372C699.803 413.236 699.561 413.168 699.28 413.168C699.07 413.168 698.881 413.206 698.713 413.283C698.546 413.359 698.402 413.473 698.283 413.624C698.167 413.771 698.076 413.955 698.01 414.173C697.948 414.389 697.917 414.636 697.917 414.915C697.917 415.474 698.037 415.916 698.279 416.24C698.523 416.561 698.86 416.722 699.289 416.722Z" fill="#8D8D8D"/>
<path d="M663.932 311.273V320H662.087V313.024H662.036L660.037 314.277V312.641L662.198 311.273H663.932ZM665.874 318.466V317.013L669.518 311.273H670.77V313.284H670.029L667.732 316.919V316.987H672.91V318.466H665.874ZM670.063 320V318.023L670.097 317.379V311.273H671.827V320H670.063ZM676.933 320V313.455H678.749V315.994H679.26L681.041 313.455H683.172L680.858 316.702L683.198 320H681.041L679.426 317.678H678.749V320H676.933ZM685.831 320.124C685.414 320.124 685.041 320.051 684.715 319.906C684.388 319.759 684.129 319.541 683.939 319.254C683.752 318.964 683.658 318.604 683.658 318.172C683.658 317.808 683.725 317.503 683.858 317.256C683.992 317.009 684.173 316.81 684.404 316.659C684.634 316.509 684.895 316.395 685.188 316.318C685.483 316.241 685.793 316.188 686.117 316.156C686.497 316.116 686.804 316.08 687.037 316.045C687.27 316.009 687.439 315.955 687.544 315.884C687.649 315.812 687.702 315.707 687.702 315.568V315.543C687.702 315.273 687.617 315.064 687.446 314.916C687.279 314.768 687.04 314.695 686.73 314.695C686.404 314.695 686.144 314.767 685.95 314.912C685.757 315.054 685.629 315.233 685.567 315.449L683.888 315.312C683.973 314.915 684.141 314.571 684.391 314.281C684.641 313.989 684.963 313.764 685.358 313.608C685.756 313.449 686.216 313.369 686.739 313.369C687.102 313.369 687.45 313.412 687.783 313.497C688.118 313.582 688.415 313.714 688.673 313.893C688.935 314.072 689.141 314.303 689.291 314.584C689.442 314.862 689.517 315.196 689.517 315.585V320H687.796V319.092H687.744C687.639 319.297 687.499 319.477 687.323 319.634C687.146 319.787 686.935 319.908 686.688 319.996C686.441 320.081 686.155 320.124 685.831 320.124ZM686.351 318.871C686.618 318.871 686.854 318.818 687.058 318.713C687.263 318.605 687.423 318.46 687.54 318.278C687.656 318.097 687.715 317.891 687.715 317.661V316.966C687.658 317.003 687.58 317.037 687.48 317.068C687.384 317.097 687.274 317.124 687.152 317.149C687.03 317.172 686.908 317.193 686.786 317.213C686.664 317.23 686.553 317.246 686.453 317.26C686.24 317.291 686.054 317.341 685.895 317.409C685.736 317.477 685.612 317.57 685.524 317.686C685.436 317.8 685.392 317.942 685.392 318.112C685.392 318.359 685.482 318.548 685.661 318.679C685.843 318.807 686.073 318.871 686.351 318.871ZM696.367 311.051L696.921 312.236C696.737 312.389 696.532 312.503 696.308 312.577C696.083 312.648 695.815 312.695 695.502 312.717C695.193 312.74 694.815 312.756 694.369 312.764C693.863 312.77 693.451 312.851 693.133 313.007C692.815 313.163 692.573 313.409 692.409 313.744C692.244 314.077 692.136 314.511 692.085 315.048H692.149C692.345 314.648 692.62 314.338 692.975 314.119C693.333 313.901 693.775 313.791 694.301 313.791C694.857 313.791 695.345 313.913 695.762 314.158C696.183 314.402 696.509 314.753 696.742 315.21C696.975 315.668 697.092 316.216 697.092 316.855C697.092 317.52 696.961 318.098 696.7 318.589C696.441 319.078 696.073 319.457 695.596 319.727C695.119 319.994 694.551 320.128 693.892 320.128C693.23 320.128 692.659 319.989 692.178 319.71C691.701 319.432 691.332 319.021 691.07 318.479C690.812 317.936 690.683 317.268 690.683 316.476V315.939C690.683 314.362 690.99 313.193 691.603 312.432C692.217 311.67 693.119 311.284 694.309 311.273C694.633 311.267 694.926 311.266 695.187 311.268C695.448 311.271 695.677 311.259 695.873 311.23C696.072 311.202 696.237 311.142 696.367 311.051ZM693.9 318.722C694.178 318.722 694.417 318.649 694.616 318.504C694.818 318.359 694.972 318.152 695.08 317.882C695.191 317.612 695.247 317.29 695.247 316.915C695.247 316.543 695.191 316.227 695.08 315.969C694.972 315.707 694.818 315.509 694.616 315.372C694.414 315.236 694.173 315.168 693.892 315.168C693.681 315.168 693.492 315.206 693.325 315.283C693.157 315.359 693.014 315.473 692.894 315.624C692.778 315.771 692.687 315.955 692.622 316.173C692.559 316.389 692.528 316.636 692.528 316.915C692.528 317.474 692.649 317.916 692.89 318.24C693.134 318.561 693.471 318.722 693.9 318.722Z" fill="#8D8D8D"/>
<path d="M663.631 212.273V221H661.786V214.024H661.735L659.736 215.277V213.641L661.897 212.273H663.631ZM668.893 221.119C668.291 221.119 667.754 221.009 667.282 220.787C666.813 220.565 666.441 220.26 666.166 219.871C665.89 219.482 665.747 219.036 665.735 218.533H667.525C667.545 218.871 667.687 219.145 667.951 219.355C668.215 219.565 668.529 219.67 668.893 219.67C669.183 219.67 669.438 219.607 669.66 219.479C669.884 219.348 670.059 219.168 670.184 218.938C670.312 218.705 670.376 218.437 670.376 218.136C670.376 217.83 670.311 217.56 670.18 217.327C670.052 217.094 669.874 216.912 669.647 216.781C669.42 216.651 669.16 216.584 668.867 216.581C668.612 216.581 668.363 216.634 668.122 216.739C667.883 216.844 667.697 216.987 667.563 217.169L665.923 216.875L666.336 212.273H671.671V213.781H667.857L667.632 215.967H667.683C667.836 215.751 668.068 215.572 668.377 215.43C668.687 215.288 669.034 215.217 669.417 215.217C669.943 215.217 670.411 215.341 670.823 215.588C671.235 215.835 671.561 216.175 671.799 216.607C672.038 217.036 672.156 217.53 672.153 218.089C672.156 218.678 672.019 219.2 671.744 219.658C671.471 220.112 671.089 220.47 670.597 220.732C670.109 220.99 669.541 221.119 668.893 221.119ZM676.234 221V214.455H678.05V216.994H678.561L680.342 214.455H682.473L680.159 217.702L682.498 221H680.342L678.727 218.678H678.05V221H676.234ZM685.132 221.124C684.714 221.124 684.342 221.051 684.015 220.906C683.689 220.759 683.43 220.541 683.24 220.254C683.052 219.964 682.959 219.604 682.959 219.172C682.959 218.808 683.025 218.503 683.159 218.256C683.292 218.009 683.474 217.81 683.704 217.659C683.934 217.509 684.196 217.395 684.488 217.318C684.784 217.241 685.094 217.188 685.417 217.156C685.798 217.116 686.105 217.08 686.338 217.045C686.571 217.009 686.74 216.955 686.845 216.884C686.95 216.812 687.003 216.707 687.003 216.568V216.543C687.003 216.273 686.917 216.064 686.747 215.916C686.579 215.768 686.341 215.695 686.031 215.695C685.704 215.695 685.444 215.767 685.251 215.912C685.058 216.054 684.93 216.233 684.868 216.449L683.189 216.312C683.274 215.915 683.442 215.571 683.692 215.281C683.942 214.989 684.264 214.764 684.659 214.608C685.057 214.449 685.517 214.369 686.04 214.369C686.403 214.369 686.751 214.412 687.084 214.497C687.419 214.582 687.716 214.714 687.974 214.893C688.236 215.072 688.442 215.303 688.592 215.584C688.743 215.862 688.818 216.196 688.818 216.585V221H687.096V220.092H687.045C686.94 220.297 686.8 220.477 686.623 220.634C686.447 220.787 686.236 220.908 685.988 220.996C685.741 221.081 685.456 221.124 685.132 221.124ZM685.652 219.871C685.919 219.871 686.155 219.818 686.359 219.713C686.564 219.605 686.724 219.46 686.841 219.278C686.957 219.097 687.015 218.891 687.015 218.661V217.966C686.959 218.003 686.881 218.037 686.781 218.068C686.684 218.097 686.575 218.124 686.453 218.149C686.331 218.172 686.209 218.193 686.086 218.213C685.964 218.23 685.854 218.246 685.754 218.26C685.541 218.291 685.355 218.341 685.196 218.409C685.037 218.477 684.913 218.57 684.825 218.686C684.737 218.8 684.693 218.942 684.693 219.112C684.693 219.359 684.782 219.548 684.961 219.679C685.143 219.807 685.373 219.871 685.652 219.871ZM695.668 212.051L696.222 213.236C696.037 213.389 695.833 213.503 695.608 213.577C695.384 213.648 695.116 213.695 694.803 213.717C694.493 213.74 694.116 213.756 693.67 213.764C693.164 213.77 692.752 213.851 692.434 214.007C692.116 214.163 691.874 214.409 691.709 214.744C691.545 215.077 691.437 215.511 691.385 216.048H691.449C691.645 215.648 691.921 215.338 692.276 215.119C692.634 214.901 693.076 214.791 693.601 214.791C694.158 214.791 694.645 214.913 695.063 215.158C695.483 215.402 695.81 215.753 696.043 216.21C696.276 216.668 696.393 217.216 696.393 217.855C696.393 218.52 696.262 219.098 696.001 219.589C695.742 220.078 695.374 220.457 694.897 220.727C694.42 220.994 693.851 221.128 693.192 221.128C692.53 221.128 691.959 220.989 691.479 220.71C691.002 220.432 690.633 220.021 690.371 219.479C690.113 218.936 689.983 218.268 689.983 217.476V216.939C689.983 215.362 690.29 214.193 690.904 213.432C691.518 212.67 692.42 212.284 693.61 212.273C693.934 212.267 694.226 212.266 694.488 212.268C694.749 212.271 694.978 212.259 695.174 212.23C695.373 212.202 695.537 212.142 695.668 212.051ZM693.201 219.722C693.479 219.722 693.718 219.649 693.917 219.504C694.118 219.359 694.273 219.152 694.381 218.882C694.492 218.612 694.547 218.29 694.547 217.915C694.547 217.543 694.492 217.227 694.381 216.969C694.273 216.707 694.118 216.509 693.917 216.372C693.715 216.236 693.474 216.168 693.192 216.168C692.982 216.168 692.793 216.206 692.626 216.283C692.458 216.359 692.314 216.473 692.195 216.624C692.079 216.771 691.988 216.955 691.922 217.173C691.86 217.389 691.829 217.636 691.829 217.915C691.829 218.474 691.949 218.916 692.191 219.24C692.435 219.561 692.772 219.722 693.201 219.722Z" fill="#8D8D8D"/>
<path d="M663.537 133.273V142H661.692V135.024H661.641L659.643 136.277V134.641L661.803 133.273H663.537ZM668.961 142.119C668.512 142.116 668.079 142.041 667.661 141.893C667.247 141.746 666.874 141.506 666.545 141.173C666.215 140.841 665.954 140.401 665.761 139.852C665.57 139.304 665.475 138.631 665.475 137.832C665.478 137.099 665.562 136.445 665.727 135.868C665.894 135.288 666.133 134.797 666.443 134.393C666.755 133.99 667.129 133.683 667.563 133.473C667.998 133.26 668.485 133.153 669.025 133.153C669.607 133.153 670.122 133.267 670.568 133.494C671.014 133.719 671.372 134.024 671.642 134.411C671.914 134.797 672.079 135.23 672.136 135.71H670.316C670.245 135.406 670.096 135.168 669.869 134.994C669.642 134.821 669.36 134.734 669.025 134.734C668.457 134.734 668.025 134.982 667.73 135.476C667.437 135.97 667.288 136.642 667.282 137.491H667.342C667.472 137.233 667.649 137.013 667.87 136.831C668.095 136.646 668.349 136.506 668.633 136.409C668.92 136.31 669.222 136.26 669.541 136.26C670.058 136.26 670.518 136.382 670.921 136.626C671.325 136.868 671.643 137.2 671.876 137.624C672.109 138.047 672.225 138.531 672.225 139.077C672.225 139.668 672.088 140.193 671.812 140.653C671.539 141.114 671.157 141.474 670.666 141.736C670.177 141.994 669.609 142.122 668.961 142.119ZM668.953 140.67C669.237 140.67 669.491 140.602 669.715 140.466C669.94 140.33 670.116 140.145 670.244 139.912C670.372 139.679 670.436 139.418 670.436 139.128C670.436 138.838 670.372 138.578 670.244 138.348C670.119 138.118 669.945 137.935 669.724 137.798C669.502 137.662 669.249 137.594 668.965 137.594C668.752 137.594 668.555 137.634 668.373 137.713C668.194 137.793 668.036 137.903 667.9 138.045C667.767 138.187 667.661 138.352 667.585 138.54C667.508 138.724 667.47 138.922 667.47 139.132C667.47 139.413 667.534 139.67 667.661 139.903C667.792 140.136 667.968 140.322 668.19 140.462C668.414 140.601 668.669 140.67 668.953 140.67ZM676.328 142V135.455H678.143V137.994H678.655L680.436 135.455H682.567L680.253 138.702L682.592 142H680.436L678.821 139.678H678.143V142H676.328ZM685.226 142.124C684.808 142.124 684.436 142.051 684.109 141.906C683.782 141.759 683.524 141.541 683.334 141.254C683.146 140.964 683.052 140.604 683.052 140.172C683.052 139.808 683.119 139.503 683.253 139.256C683.386 139.009 683.568 138.81 683.798 138.659C684.028 138.509 684.29 138.395 684.582 138.318C684.878 138.241 685.187 138.188 685.511 138.156C685.892 138.116 686.199 138.08 686.432 138.045C686.665 138.009 686.834 137.955 686.939 137.884C687.044 137.812 687.096 137.707 687.096 137.568V137.543C687.096 137.273 687.011 137.064 686.841 136.916C686.673 136.768 686.434 136.695 686.125 136.695C685.798 136.695 685.538 136.767 685.345 136.912C685.152 137.054 685.024 137.233 684.961 137.449L683.282 137.312C683.368 136.915 683.535 136.571 683.785 136.281C684.035 135.989 684.358 135.764 684.753 135.608C685.15 135.449 685.611 135.369 686.133 135.369C686.497 135.369 686.845 135.412 687.177 135.497C687.513 135.582 687.809 135.714 688.068 135.893C688.329 136.072 688.535 136.303 688.686 136.584C688.836 136.862 688.912 137.196 688.912 137.585V142H687.19V141.092H687.139C687.034 141.297 686.893 141.477 686.717 141.634C686.541 141.787 686.329 141.908 686.082 141.996C685.835 142.081 685.55 142.124 685.226 142.124ZM685.746 140.871C686.013 140.871 686.248 140.818 686.453 140.713C686.657 140.605 686.818 140.46 686.934 140.278C687.051 140.097 687.109 139.891 687.109 139.661V138.966C687.052 139.003 686.974 139.037 686.875 139.068C686.778 139.097 686.669 139.124 686.547 139.149C686.425 139.172 686.302 139.193 686.18 139.213C686.058 139.23 685.947 139.246 685.848 139.26C685.635 139.291 685.449 139.341 685.29 139.409C685.131 139.477 685.007 139.57 684.919 139.686C684.831 139.8 684.787 139.942 684.787 140.112C684.787 140.359 684.876 140.548 685.055 140.679C685.237 140.807 685.467 140.871 685.746 140.871ZM695.762 133.051L696.316 134.236C696.131 134.389 695.927 134.503 695.702 134.577C695.478 134.648 695.209 134.695 694.897 134.717C694.587 134.74 694.209 134.756 693.763 134.764C693.258 134.77 692.846 134.851 692.528 135.007C692.209 135.163 691.968 135.409 691.803 135.744C691.638 136.077 691.53 136.511 691.479 137.048H691.543C691.739 136.648 692.015 136.338 692.37 136.119C692.728 135.901 693.17 135.791 693.695 135.791C694.252 135.791 694.739 135.913 695.157 136.158C695.577 136.402 695.904 136.753 696.137 137.21C696.37 137.668 696.486 138.216 696.486 138.855C696.486 139.52 696.356 140.098 696.094 140.589C695.836 141.078 695.468 141.457 694.991 141.727C694.513 141.994 693.945 142.128 693.286 142.128C692.624 142.128 692.053 141.989 691.573 141.71C691.096 141.432 690.726 141.021 690.465 140.479C690.206 139.936 690.077 139.268 690.077 138.476V137.939C690.077 136.362 690.384 135.193 690.998 134.432C691.611 133.67 692.513 133.284 693.704 133.273C694.028 133.267 694.32 133.266 694.581 133.268C694.843 133.271 695.072 133.259 695.268 133.23C695.466 133.202 695.631 133.142 695.762 133.051ZM693.295 140.722C693.573 140.722 693.812 140.649 694.01 140.504C694.212 140.359 694.367 140.152 694.475 139.882C694.586 139.612 694.641 139.29 694.641 138.915C694.641 138.543 694.586 138.227 694.475 137.969C694.367 137.707 694.212 137.509 694.01 137.372C693.809 137.236 693.567 137.168 693.286 137.168C693.076 137.168 692.887 137.206 692.719 137.283C692.552 137.359 692.408 137.473 692.289 137.624C692.172 137.771 692.081 137.955 692.016 138.173C691.954 138.389 691.922 138.636 691.922 138.915C691.922 139.474 692.043 139.916 692.285 140.24C692.529 140.561 692.866 140.722 693.295 140.722Z" fill="#8D8D8D"/>
<path d="M663.93 86.2727V95H662.085V88.0241H662.034L660.035 89.277V87.6406L662.196 86.2727H663.93ZM666.349 95L669.967 87.8409V87.7812H665.753V86.2727H671.876V87.8026L668.254 95H666.349ZM675.935 95V88.4545H677.751V90.9943H678.262L680.043 88.4545H682.174L679.86 91.7017L682.2 95H680.043L678.428 92.6776H677.751V95H675.935ZM684.833 95.1236C684.415 95.1236 684.043 95.0511 683.717 94.9062C683.39 94.7585 683.131 94.5412 682.941 94.2543C682.754 93.9645 682.66 93.6037 682.66 93.1719C682.66 92.8082 682.727 92.5028 682.86 92.2557C682.994 92.0085 683.175 91.8097 683.406 91.6591C683.636 91.5085 683.897 91.3949 684.19 91.3182C684.485 91.2415 684.795 91.1875 685.119 91.1562C685.499 91.1165 685.806 91.0795 686.039 91.0455C686.272 91.0085 686.441 90.9545 686.546 90.8835C686.651 90.8125 686.704 90.7074 686.704 90.5682V90.5426C686.704 90.2727 686.619 90.0639 686.448 89.9162C686.281 89.7685 686.042 89.6946 685.732 89.6946C685.406 89.6946 685.146 89.767 684.952 89.9119C684.759 90.054 684.631 90.233 684.569 90.4489L682.89 90.3125C682.975 89.9148 683.143 89.571 683.393 89.2812C683.643 88.9886 683.965 88.7642 684.36 88.608C684.758 88.4489 685.218 88.3693 685.741 88.3693C686.104 88.3693 686.452 88.4119 686.785 88.4972C687.12 88.5824 687.417 88.7145 687.675 88.8935C687.937 89.0724 688.143 89.3026 688.293 89.5838C688.444 89.8622 688.519 90.196 688.519 90.5852V95H686.798V94.0923H686.746C686.641 94.2969 686.501 94.4773 686.325 94.6335C686.148 94.7869 685.937 94.9077 685.69 94.9957C685.442 95.081 685.157 95.1236 684.833 95.1236ZM685.353 93.8707C685.62 93.8707 685.856 93.8182 686.06 93.7131C686.265 93.6051 686.425 93.4602 686.542 93.2784C686.658 93.0966 686.717 92.8906 686.717 92.6605V91.9659C686.66 92.0028 686.582 92.0369 686.482 92.0682C686.386 92.0966 686.276 92.1236 686.154 92.1491C686.032 92.1719 685.91 92.1932 685.788 92.2131C685.665 92.2301 685.555 92.2457 685.455 92.2599C685.242 92.2912 685.056 92.3409 684.897 92.4091C684.738 92.4773 684.614 92.5696 684.526 92.6861C684.438 92.7997 684.394 92.9418 684.394 93.1122C684.394 93.3594 684.484 93.5483 684.663 93.679C684.844 93.8068 685.075 93.8707 685.353 93.8707ZM695.369 86.0511L695.923 87.2358C695.739 87.3892 695.534 87.5028 695.31 87.5767C695.085 87.6477 694.817 87.6946 694.504 87.7173C694.195 87.7401 693.817 87.7557 693.371 87.7642C692.865 87.7699 692.453 87.8509 692.135 88.0071C691.817 88.1634 691.575 88.4091 691.411 88.7443C691.246 89.0767 691.138 89.5114 691.087 90.0483H691.151C691.347 89.6477 691.622 89.3381 691.977 89.1193C692.335 88.9006 692.777 88.7912 693.303 88.7912C693.859 88.7912 694.347 88.9134 694.764 89.1577C695.185 89.402 695.511 89.7528 695.744 90.2102C695.977 90.6676 696.094 91.2159 696.094 91.8551C696.094 92.5199 695.963 93.098 695.702 93.5895C695.443 94.0781 695.075 94.4574 694.598 94.7273C694.121 94.9943 693.553 95.1278 692.893 95.1278C692.232 95.1278 691.661 94.9886 691.18 94.7102C690.703 94.4318 690.334 94.0213 690.072 93.4787C689.814 92.9361 689.685 92.2685 689.685 91.4759V90.9389C689.685 89.3622 689.991 88.1932 690.605 87.4318C691.219 86.6705 692.121 86.2841 693.311 86.2727C693.635 86.267 693.928 86.2656 694.189 86.2685C694.45 86.2713 694.679 86.2585 694.875 86.2301C695.074 86.2017 695.239 86.142 695.369 86.0511ZM692.902 93.7216C693.18 93.7216 693.419 93.6491 693.618 93.5043C693.82 93.3594 693.974 93.152 694.082 92.8821C694.193 92.6122 694.249 92.2898 694.249 91.9148C694.249 91.5426 694.193 91.2273 694.082 90.9688C693.974 90.7074 693.82 90.5085 693.618 90.3722C693.416 90.2358 693.175 90.1676 692.893 90.1676C692.683 90.1676 692.494 90.206 692.327 90.2827C692.159 90.3594 692.016 90.473 691.896 90.6236C691.78 90.7713 691.689 90.9545 691.624 91.1733C691.561 91.3892 691.53 91.6364 691.53 91.9148C691.53 92.4744 691.651 92.9162 691.892 93.2401C692.136 93.5611 692.473 93.7216 692.902 93.7216Z" fill="#8D8D8D"/>
<path d="M649.532 35.2727V44H647.686V37.0241H647.635L645.637 38.277V36.6406L647.797 35.2727H649.532ZM654.862 44.1193C654.205 44.1193 653.621 44.0128 653.11 43.7997C652.602 43.5838 652.202 43.2898 651.913 42.9176C651.623 42.5455 651.478 42.1236 651.478 41.652C651.478 41.2884 651.56 40.9545 651.725 40.6506C651.893 40.3438 652.12 40.0895 652.407 39.8878C652.694 39.6832 653.015 39.5526 653.37 39.4957V39.4361C652.904 39.3423 652.526 39.1165 652.237 38.7585C651.947 38.3977 651.802 37.9787 651.802 37.5014C651.802 37.0497 651.934 36.6477 652.198 36.2955C652.462 35.9403 652.825 35.6619 653.285 35.4602C653.748 35.2557 654.273 35.1534 654.862 35.1534C655.45 35.1534 655.974 35.2557 656.434 35.4602C656.897 35.6648 657.261 35.9446 657.525 36.2997C657.789 36.652 657.923 37.0526 657.925 37.5014C657.923 37.9815 657.775 38.4006 657.482 38.7585C657.19 39.1165 656.815 39.3423 656.357 39.4361V39.4957C656.707 39.5526 657.023 39.6832 657.308 39.8878C657.594 40.0895 657.822 40.3438 657.989 40.6506C658.16 40.9545 658.246 41.2884 658.249 41.652C658.246 42.1236 658.1 42.5455 657.81 42.9176C657.521 43.2898 657.12 43.5838 656.609 43.7997C656.1 44.0128 655.518 44.1193 654.862 44.1193ZM654.862 42.7642C655.154 42.7642 655.41 42.7116 655.629 42.6065C655.847 42.4986 656.018 42.3509 656.14 42.1634C656.265 41.973 656.327 41.7543 656.327 41.5071C656.327 41.2543 656.263 41.0312 656.136 40.8381C656.008 40.642 655.835 40.4886 655.616 40.3778C655.397 40.2642 655.146 40.2074 654.862 40.2074C654.58 40.2074 654.329 40.2642 654.107 40.3778C653.886 40.4886 653.711 40.642 653.583 40.8381C653.458 41.0312 653.396 41.2543 653.396 41.5071C653.396 41.7543 653.457 41.973 653.579 42.1634C653.701 42.3509 653.873 42.4986 654.094 42.6065C654.316 42.7116 654.572 42.7642 654.862 42.7642ZM654.862 38.8651C655.106 38.8651 655.323 38.8153 655.513 38.7159C655.704 38.6165 655.853 38.4787 655.961 38.3026C656.069 38.1264 656.123 37.9233 656.123 37.6932C656.123 37.4659 656.069 37.267 655.961 37.0966C655.853 36.9233 655.705 36.7884 655.518 36.6918C655.33 36.5923 655.112 36.5426 654.862 36.5426C654.614 36.5426 654.396 36.5923 654.205 36.6918C654.015 36.7884 653.866 36.9233 653.758 37.0966C653.653 37.267 653.6 37.4659 653.6 37.6932C653.6 37.9233 653.654 38.1264 653.762 38.3026C653.87 38.4787 654.019 38.6165 654.21 38.7159C654.4 38.8153 654.617 38.8651 654.862 38.8651ZM662.334 44V37.4545H664.149V39.9943H664.661L666.442 37.4545H668.572L666.259 40.7017L668.598 44H666.442L664.827 41.6776H664.149V44H662.334ZM671.232 44.1236C670.814 44.1236 670.442 44.0511 670.115 43.9062C669.788 43.7585 669.53 43.5412 669.339 43.2543C669.152 42.9645 669.058 42.6037 669.058 42.1719C669.058 41.8082 669.125 41.5028 669.259 41.2557C669.392 41.0085 669.574 40.8097 669.804 40.6591C670.034 40.5085 670.295 40.3949 670.588 40.3182C670.884 40.2415 671.193 40.1875 671.517 40.1562C671.898 40.1165 672.205 40.0795 672.438 40.0455C672.67 40.0085 672.839 39.9545 672.945 39.8835C673.05 39.8125 673.102 39.7074 673.102 39.5682V39.5426C673.102 39.2727 673.017 39.0639 672.847 38.9162C672.679 38.7685 672.44 38.6946 672.131 38.6946C671.804 38.6946 671.544 38.767 671.351 38.9119C671.158 39.054 671.03 39.233 670.967 39.4489L669.288 39.3125C669.374 38.9148 669.541 38.571 669.791 38.2812C670.041 37.9886 670.364 37.7642 670.759 37.608C671.156 37.4489 671.616 37.3693 672.139 37.3693C672.503 37.3693 672.851 37.4119 673.183 37.4972C673.518 37.5824 673.815 37.7145 674.074 37.8935C674.335 38.0724 674.541 38.3026 674.692 38.5838C674.842 38.8622 674.918 39.196 674.918 39.5852V44H673.196V43.0923H673.145C673.04 43.2969 672.899 43.4773 672.723 43.6335C672.547 43.7869 672.335 43.9077 672.088 43.9957C671.841 44.081 671.555 44.1236 671.232 44.1236ZM671.751 42.8707C672.018 42.8707 672.254 42.8182 672.459 42.7131C672.663 42.6051 672.824 42.4602 672.94 42.2784C673.057 42.0966 673.115 41.8906 673.115 41.6605V40.9659C673.058 41.0028 672.98 41.0369 672.881 41.0682C672.784 41.0966 672.675 41.1236 672.553 41.1491C672.43 41.1719 672.308 41.1932 672.186 41.2131C672.064 41.2301 671.953 41.2457 671.854 41.2599C671.641 41.2912 671.455 41.3409 671.295 41.4091C671.136 41.4773 671.013 41.5696 670.925 41.6861C670.837 41.7997 670.793 41.9418 670.793 42.1122C670.793 42.3594 670.882 42.5483 671.061 42.679C671.243 42.8068 671.473 42.8707 671.751 42.8707ZM681.768 35.0511L682.322 36.2358C682.137 36.3892 681.933 36.5028 681.708 36.5767C681.484 36.6477 681.215 36.6946 680.903 36.7173C680.593 36.7401 680.215 36.7557 679.769 36.7642C679.263 36.7699 678.852 36.8509 678.533 37.0071C678.215 37.1634 677.974 37.4091 677.809 37.7443C677.644 38.0767 677.536 38.5114 677.485 39.0483H677.549C677.745 38.6477 678.021 38.3381 678.376 38.1193C678.734 37.9006 679.175 37.7912 679.701 37.7912C680.258 37.7912 680.745 37.9134 681.163 38.1577C681.583 38.402 681.91 38.7528 682.143 39.2102C682.376 39.6676 682.492 40.2159 682.492 40.8551C682.492 41.5199 682.362 42.098 682.1 42.5895C681.842 43.0781 681.474 43.4574 680.996 43.7273C680.519 43.9943 679.951 44.1278 679.292 44.1278C678.63 44.1278 678.059 43.9886 677.579 43.7102C677.102 43.4318 676.732 43.0213 676.471 42.4787C676.212 41.9361 676.083 41.2685 676.083 40.4759V39.9389C676.083 38.3622 676.39 37.1932 677.004 36.4318C677.617 35.6705 678.519 35.2841 679.71 35.2727C680.033 35.267 680.326 35.2656 680.587 35.2685C680.849 35.2713 681.077 35.2585 681.273 35.2301C681.472 35.2017 681.637 35.142 681.768 35.0511ZM679.3 42.7216C679.579 42.7216 679.817 42.6491 680.016 42.5043C680.218 42.3594 680.373 42.152 680.481 41.8821C680.592 41.6122 680.647 41.2898 680.647 40.9148C680.647 40.5426 680.592 40.2273 680.481 39.9688C680.373 39.7074 680.218 39.5085 680.016 39.3722C679.815 39.2358 679.573 39.1676 679.292 39.1676C679.082 39.1676 678.893 39.206 678.725 39.2827C678.558 39.3594 678.414 39.473 678.295 39.6236C678.178 39.7713 678.087 39.9545 678.022 40.1733C677.96 40.3892 677.928 40.6364 677.928 40.9148C677.928 41.4744 678.049 41.9162 678.29 42.2401C678.535 42.5611 678.871 42.7216 679.3 42.7216Z" fill="#8D8D8D"/>
<defs>
<linearGradient id="paint0_linear_17_1326" x1="5" y1="4" x2="741.743" y2="454.329" gradientUnits="userSpaceOnUse">
<stop stop-color="#001DB6"/>
<stop offset="1" stop-color="#00B94A"/>
</linearGradient>
</defs>
</svg>
