<svg width="280" height="280" viewBox="0 0 280 280" fill="none" xmlns="http://www.w3.org/2000/svg">
<path d="M0 140C0 102.774 0 84.1616 4.89435 69.0983C14.7861 38.6545 38.6545 14.7861 69.0983 4.89435C84.1616 0 102.774 0 140 0V0C177.226 0 195.838 0 210.902 4.89435C241.345 14.7861 265.214 38.6545 275.106 69.0983C280 84.1616 280 102.774 280 140V140C280 177.226 280 195.838 275.106 210.902C265.214 241.345 241.345 265.214 210.902 275.106C195.838 280 177.226 280 140 280V280C102.774 280 84.1616 280 69.0983 275.106C38.6545 265.214 14.7861 241.345 4.89435 210.902C0 195.838 0 177.226 0 140V140Z" fill="white"/>
<path fill-rule="evenodd" clip-rule="evenodd" d="M140 215C195.228 215 240 140 240 140C240 140 195.228 65 140 65C84.7715 65 40 140 40 140C40 140 84.7715 215 140 215ZM184 135.828V140.753L179.195 139.165C178.64 138.951 177.01 138.319 176.087 137.893C174.249 137.046 171.777 135.747 169.282 133.943C164.378 130.399 158.785 124.44 158.785 115.698C158.785 110.576 155.345 107.231 150.938 104.963C148.782 103.853 146.59 103.118 144.914 102.66C142.866 102.1 140.127 102.1 140.127 102.1L142.811 94.9999C148.22 94.9999 153.576 96.0559 158.573 98.1077C163.57 100.159 168.111 103.167 171.936 106.958C175.761 110.749 178.795 115.25 180.865 120.204C182.935 125.157 184 130.466 184 135.828ZM135.824 95H140.75L139.162 99.8049C138.947 100.36 138.316 101.99 137.89 102.913C137.042 104.751 135.743 107.223 133.94 109.718C130.395 114.622 124.436 120.215 115.693 120.215C110.571 120.215 107.226 123.655 104.957 128.062C103.848 130.218 103.112 132.41 102.655 134.086C102.095 136.134 102.095 138.873 102.095 138.873L94.9966 136.189C94.9966 130.78 96.0502 125.424 98.1021 120.427C100.154 115.429 103.161 110.889 106.953 107.064C110.744 103.239 115.245 100.205 120.199 98.1353C125.153 96.0654 130.462 95 135.824 95ZM95 142.57V137.62L99.8049 139.216C100.36 139.431 101.99 140.066 102.913 140.494C104.751 141.345 107.223 142.651 109.718 144.463C114.622 148.025 120.215 154.013 120.215 162.799C120.215 167.945 123.655 171.307 128.062 173.586C130.218 174.701 132.41 175.44 134.086 175.9C136.134 176.463 138.873 176.463 138.873 176.463L136.189 184C130.78 184 125.424 182.537 120.427 180.475C115.43 178.413 110.889 175.391 107.064 171.581C103.239 167.771 100.205 163.248 98.1353 158.271C96.0654 153.293 95 147.958 95 142.57ZM137.617 184H142.543C147.904 184 153.214 182.935 158.167 180.865C163.12 178.795 167.621 175.761 171.413 171.936C175.204 168.111 178.211 163.571 180.263 158.573C182.315 153.576 183.371 148.22 183.371 142.811L176.27 140.127C176.27 140.127 176.27 142.866 175.711 144.915C175.253 146.59 174.517 148.782 173.408 150.938C171.14 155.345 167.794 158.785 162.673 158.785C153.931 158.785 147.972 164.378 144.427 169.282C142.624 171.777 141.325 174.249 140.477 176.087C140.051 177.01 139.42 178.64 139.205 179.195L137.617 184Z" fill="#83EA00"/>
</svg>
