<svg width="841" height="280" viewBox="0 0 841 280" fill="none" xmlns="http://www.w3.org/2000/svg">
<path fill-rule="evenodd" clip-rule="evenodd" d="M140.457 215C195.685 215 240.457 140 240.457 140C240.457 140 195.685 65 140.457 65C85.2285 65 40.457 140 40.457 140C40.457 140 85.2285 215 140.457 215ZM184.457 135.828V140.753L179.652 139.165C179.097 138.951 177.467 138.319 176.544 137.893C174.706 137.046 172.234 135.747 169.739 133.943C164.835 130.399 159.242 124.44 159.242 115.698C159.242 110.576 155.802 107.231 151.395 104.963C149.239 103.853 147.047 103.118 145.371 102.66C143.323 102.1 140.584 102.1 140.584 102.1L143.268 94.9999C148.677 94.9999 154.033 96.0559 159.03 98.1077C164.027 100.159 168.568 103.167 172.393 106.958C176.218 110.749 179.252 115.25 181.322 120.204C183.392 125.157 184.457 130.466 184.457 135.828ZM136.281 95H141.207L139.619 99.8049C139.404 100.36 138.773 101.99 138.347 102.913C137.499 104.751 136.2 107.223 134.397 109.718C130.852 114.622 124.893 120.215 116.15 120.215C111.028 120.215 107.683 123.655 105.414 128.062C104.305 130.218 103.569 132.41 103.112 134.086C102.552 136.134 102.552 138.873 102.552 138.873L95.4536 136.189C95.4536 130.78 96.5072 125.424 98.5591 120.427C100.611 115.429 103.618 110.889 107.41 107.064C111.201 103.239 115.702 100.205 120.656 98.1353C125.61 96.0654 130.919 95 136.281 95ZM95.457 142.57V137.62L100.262 139.216C100.817 139.431 102.447 140.066 103.37 140.494C105.208 141.345 107.68 142.651 110.175 144.463C115.079 148.025 120.672 154.013 120.672 162.799C120.672 167.945 124.112 171.307 128.519 173.586C130.675 174.701 132.867 175.44 134.542 175.9C136.591 176.463 139.33 176.463 139.33 176.463L136.646 184C131.237 184 125.881 182.537 120.884 180.475C115.886 178.413 111.346 175.391 107.521 171.581C103.696 167.771 100.662 163.248 98.5923 158.271C96.5224 153.293 95.457 147.958 95.457 142.57ZM138.074 184H143C148.361 184 153.671 182.935 158.624 180.865C163.577 178.795 168.078 175.761 171.87 171.936C175.661 168.111 178.668 163.571 180.72 158.573C182.772 153.576 183.828 148.22 183.828 142.811L176.727 140.127C176.727 140.127 176.727 142.866 176.168 144.915C175.71 146.59 174.974 148.782 173.865 150.938C171.597 155.345 168.251 158.785 163.13 158.785C154.388 158.785 148.429 164.378 144.884 169.282C143.081 171.777 141.782 174.249 140.934 176.087C140.508 177.01 139.877 178.64 139.662 179.195L138.074 184Z" fill="#83EA00"/>
<path d="M323.137 115.232C345.025 115.232 362.689 133.024 362.689 154.912H342.849C342.849 143.904 334.017 135.072 323.137 135.072C312.129 135.072 303.297 143.904 303.297 154.912V194.464H283.457V115.232H303.297V120.608C309.057 117.152 315.841 115.232 323.137 115.232Z" fill="black"/>
<path d="M410.782 115.232C432.67 115.232 450.334 133.024 450.334 154.912C450.334 176.8 432.67 194.464 410.782 194.464C388.766 194.464 371.102 176.8 371.102 154.912C371.102 133.024 388.766 115.232 410.782 115.232ZM410.782 174.752C421.662 174.752 430.494 165.792 430.494 154.912C430.494 143.904 421.662 135.072 410.782 135.072C399.774 135.072 390.942 143.904 390.942 154.912C390.942 165.792 399.774 174.752 410.782 174.752Z" fill="black"/>
<path d="M498.427 115.232C520.315 115.232 537.979 133.024 537.979 154.912V194.464H518.139V154.912C518.139 143.904 509.307 135.072 498.427 135.072C487.419 135.072 478.587 143.904 478.587 154.912V194.464H458.747V115.232H478.587V120.608C484.347 117.152 491.131 115.232 498.427 115.232Z" fill="black"/>
<path d="M610.559 175.964C631.559 175.964 625.624 175.964 625.624 175.964V194.464C625.624 194.464 624.059 194.464 600.059 194.464C576.059 194.464 566.062 177.464 566.062 160.464C565.997 155.676 566.232 135.072 566.232 135.072H546.392V115.232H566.232V85.536H586.072V115.232H615.768V135.072H586.072C586.072 135.072 586.072 121.964 586.072 150.464C586.072 168.464 589.559 175.964 610.559 175.964Z" fill="black"/>
<path d="M673.717 115.232C695.605 115.232 713.269 133.024 713.269 154.912C713.269 176.8 695.605 194.464 673.717 194.464C651.701 194.464 634.037 176.8 634.037 154.912C634.037 133.024 651.701 115.232 673.717 115.232ZM673.717 174.752C684.597 174.752 693.429 165.792 693.429 154.912C693.429 143.904 684.597 135.072 673.717 135.072C662.709 135.072 653.877 143.904 653.877 154.912C653.877 165.792 662.709 174.752 673.717 174.752Z" fill="black"/>
<path d="M761.362 115.232C783.25 115.232 800.914 133.024 800.914 154.912H781.074C781.074 143.904 772.242 135.072 761.362 135.072C750.354 135.072 741.522 143.904 741.522 154.912V194.464H721.682V115.232H741.522V120.608C747.282 117.152 754.066 115.232 761.362 115.232Z" fill="black"/>
</svg>
