<svg width="24" height="20" viewBox="0 0 24 20" fill="none" xmlns="http://www.w3.org/2000/svg">
<path d="M9.85486 16.9431L10.7636 15.4286H8.99737H3C1.84889 15.4286 1 14.5517 1 13.5714V2.85714C1 1.87689 1.84889 1 3 1H21C22.1511 1 23 1.87689 23 2.85714V13.5714C23 14.5517 22.1511 15.4286 21 15.4286H15.0026H13.2364L14.1451 16.9431L15.1732 18.6565C15.1733 18.6567 15.1735 18.6569 15.1736 18.6572L15.1984 19H15.135L14.5691 18.0569L13.2834 15.9141L12.9921 15.4286H12.4259H11.5741H11.0079L10.7166 15.9141L9.43085 18.0569L8.86501 19H8.80164L8.82641 18.6572C8.82654 18.6569 8.82667 18.6567 8.82682 18.6565L9.85486 16.9431Z" fill="#FF0000" stroke="black" stroke-width="2"/>
</svg>
